<?xml version="1.0" encoding="utf-8" ?>
<svg xmlns="http://www.w3.org/2000/svg" xmlns:xlink="http://www.w3.org/1999/xlink" width="300" height="300">
	<path fill="#FEFEFE" transform="matrix(0.292969 0 0 0.292969 1.52588e-05 0)" d="M0 0L1024 0L1024 1024L0 1024L0 0Z"/>
	<path fill="#541822" transform="matrix(0.292969 0 0 0.292969 1.52588e-05 0)" d="M791.633 842.422C793.69 842.686 795.161 843.079 796.504 844.757C799.108 848.011 798.293 853.003 797.952 856.84Q798.965 855.208 800.063 853.631C801.964 850.951 805.327 848.583 808.628 848.122C810.174 847.906 811.87 848.145 813.028 849.293C813.843 850.101 814.218 851.192 814.285 852.317C814.563 856.971 810.839 860.801 808.084 864.105C804.96 867.593 800.865 873.396 796.064 874.398C793.812 873.797 792.673 872.195 791.559 870.241C788.012 864.021 785.252 854.82 787.219 847.769C788.005 844.95 789.162 843.886 791.633 842.422Z"/>
	<path fill="#541822" transform="matrix(0.292969 0 0 0.292969 1.52588e-05 0)" d="M275.964 159.458C276.989 159.77 278.106 160.068 278.907 160.821C280.423 162.246 280.961 164.671 281.137 166.653C281.679 172.795 279.075 183.839 274.986 188.56C274.197 189.472 272.909 190.471 271.661 190.471C267.688 190.473 263.98 185.323 261.6 182.665C258.095 178.614 253.573 173.687 253.937 167.944C254.033 166.429 254.576 164.748 255.856 163.82C256.74 163.178 257.783 163.037 258.843 163.166C263.078 163.685 265.797 166.628 268.144 169.855C269.946 165.401 271.605 161.902 275.964 159.458Z"/>
	<path fill="#541822" transform="matrix(0.292969 0 0 0.292969 1.52588e-05 0)" d="M149.368 387.373C150.262 387.487 151.185 387.592 152.058 387.826C153.934 388.33 155.222 389.833 156.115 391.473C159.486 397.656 159.092 408.69 156.855 415.23C156.065 417.538 155.135 419.081 152.942 420.198C149.652 420.661 144.991 416.852 142.222 415.099C138.754 412.878 134.357 410.793 131.616 407.7C129.988 405.864 128.811 403.747 128.936 401.241C129.551 399.715 130.385 398.943 131.886 398.336C136.447 396.492 140.625 398.191 144.876 399.831C145.41 394.819 145.583 391.081 149.368 387.373Z"/>
	<path fill="#541822" transform="matrix(0.292969 0 0 0.292969 1.52588e-05 0)" d="M669.883 857.844C670.106 857.839 670.33 857.824 670.554 857.829C672.772 857.879 675.076 858.545 676.543 860.311C678.9 863.149 678.317 867.095 677.878 870.453C681.22 867.496 684.581 864.356 689.213 863.757C690.985 863.528 693.427 863.755 694.783 865.071C695.83 866.089 696.295 867.234 696.269 868.685C696.19 873.139 692.154 876.828 689.13 879.638C685.688 882.325 677.956 889.682 673.728 890.043C672.607 890.138 671.832 889.731 671.045 888.997C667.7 885.871 666.839 875.572 666.616 871.088C666.376 866.275 666.521 861.589 669.883 857.844Z"/>
	<path fill="#541822" transform="matrix(0.292969 0 0 0.292969 1.52588e-05 0)" d="M710.345 730.44C714.243 730.241 717.109 730.891 720.473 732.952C730.482 739.084 735.654 751.49 738.454 762.315C744.247 753.646 752.885 741.553 763.815 739.337C766.343 738.824 769.274 738.95 771.397 740.577C772.932 741.753 773.684 743.529 773.816 745.431C774.312 752.592 767.256 762.067 762.919 767.28C756.707 774.691 737.129 796.141 729.664 798.728C728.708 798.414 728.086 798.038 727.405 797.308C724.589 794.29 722.783 789.988 720.978 786.301C714.08 772.214 706.634 755.605 707.042 739.661C707.14 735.831 707.525 733.153 710.345 730.44Z"/>
	<path fill="#541822" transform="matrix(0.292969 0 0 0.292969 1.52588e-05 0)" d="M202.642 250.476C204.303 250.42 205.508 250.372 206.953 251.372C209.013 252.797 209.973 255.735 210.384 258.073C213.13 273.715 207.555 293.225 203.911 308.437C202.923 312.559 202.685 319.075 200.079 322.409C199.422 323.25 198.683 323.502 197.663 323.539C190.666 323.789 166.211 303.849 160.284 298.397C154.703 292.873 147.028 285.179 146.207 276.932C145.992 274.777 146.276 272.304 147.839 270.667C149.268 269.172 151.391 268.769 153.378 268.767C167.845 268.754 178.532 280.328 187.95 289.683C188.001 283.383 188.284 277.016 189.732 270.862C191.67 262.627 195.218 255.055 202.642 250.476Z"/>
	<path fill="#541822" transform="matrix(0.292969 0 0 0.292969 1.52588e-05 0)" d="M654.686 39.1879C654.913 39.1835 655.14 39.1766 655.367 39.1747Q656.174 39.1644 656.981 39.1947Q657.788 39.225 658.592 39.2957Q659.396 39.3664 660.196 39.4774Q660.996 39.5884 661.789 39.7394Q662.582 39.8904 663.366 40.0811Q664.151 40.2717 664.925 40.5014Q665.699 40.7312 666.46 40.9995Q667.222 41.2678 667.969 41.574Q668.716 41.8801 669.447 42.2234Q670.177 42.5667 670.89 42.9463Q671.603 43.3258 672.295 43.7406Q672.988 44.1554 673.659 44.6045Q674.33 45.0535 674.977 45.5357Q675.625 46.0179 676.248 46.5319Q676.87 47.046 677.466 47.5907Q678.062 48.1353 678.63 48.7092C696.258 66.3896 697.681 107.405 697.672 130.995C724.653 98.5145 758.782 59.8918 803.23 54.3126C813.145 53.068 825.178 53.3824 833.301 59.9324C836.438 62.4627 838.634 65.8968 838.972 69.9707C839.371 74.7751 837.238 79.0912 834.802 83.0735C826.765 96.2127 813.497 110.068 803.34 121.875Q783.626 144.595 764.91 168.143C784.243 154.094 805.119 140.062 827.221 130.776C842.821 124.223 859.42 118.159 875.956 114.454C899.34 109.216 933.609 107.749 955.839 116.954C966.9 121.535 975.958 128.833 980.582 140.094C984.043 148.52 984.848 158.441 981.186 166.935C976.011 178.935 964.487 187.993 953.496 194.409C939.003 202.87 922.774 207.947 907.045 213.509C877.171 224.074 846.605 233.266 817.138 244.875C830.752 243.736 844.521 243.484 858.091 245.333C886.48 249.201 916.969 262.542 938.847 280.937C960.142 298.841 980.644 329.633 982.957 357.972C983.56 365.359 983.126 374.587 977.942 380.39C970.195 389.063 956.356 382.15 947.925 378.207C891.098 351.625 844.134 332.116 781.488 321.907C766.739 319.504 751.742 317.248 736.778 316.876C726.368 316.618 715.996 317.476 705.62 318.192C717.528 328.351 728.615 339.283 738.411 351.521C746.59 361.739 754.831 372.228 761.598 383.446C780.597 414.943 790.3 454.135 786.074 490.873C784.449 505.002 780.337 520.291 773.869 533.051C770.898 538.914 767.184 544.419 763.616 549.932C743.276 581.356 717.131 608.292 690.257 634.141C654.275 668.751 616.092 700.642 576.982 731.638Q550.422 753.04 522.829 773.092Q495.236 793.145 466.679 811.799C374.849 872.795 269.236 931.332 164.175 965.455C141.438 972.841 71.9053 994.213 49.9526 982.457C44.4761 979.524 41.4441 974.634 39.8059 968.781C34.568 950.067 46.7687 909.271 52.303 890.292C72.6227 820.609 99.9067 753.649 129.423 687.416Q157.789 623.003 189.421 560.129Q221.052 497.255 255.866 436.085Q285.825 382.505 319.369 331.093C334.677 307.991 350.243 284.312 368.821 263.658C373.595 258.351 378.884 253.465 384.03 248.525C389.753 243.032 395.49 237.437 401.859 232.687Q404.062 231.067 406.337 229.551Q408.612 228.034 410.954 226.623Q413.297 225.212 415.701 223.911Q418.106 222.609 420.568 221.419Q423.029 220.229 425.543 219.153Q428.057 218.077 430.617 217.118Q433.178 216.158 435.78 215.317Q438.381 214.477 441.019 213.756C487.397 200.864 539.701 211.121 582.519 231.361C596.882 238.15 609.959 246.467 623.718 254.308Q619.95 223.817 617.4 193.201C614.366 158.251 605.032 79.6606 628.214 52.4694C635.089 44.4061 644.22 40.0481 654.686 39.1879Z"/>
	<defs>
		<linearGradient id="gradient_0" gradientUnits="userSpaceOnUse" x1="760.47852" y1="440.90082" x2="778.73895" y2="447.49713">
			<stop offset="0" stop-color="#FB8A54"/>
			<stop offset="1" stop-color="#FFA860"/>
		</linearGradient>
	</defs>
	<path fill="url(#gradient_0)" transform="matrix(0.292969 0 0 0.292969 1.52588e-05 0)" d="M766.961 425.424C771.448 439.254 773.829 452.714 775.224 467.182C771.443 459.768 767.568 452.384 762.944 445.452C765.836 441.551 764.394 432.455 765.223 427.709C765.471 426.288 765.837 426.258 766.961 425.424Z"/>
	<path fill="#D1E0AC" transform="matrix(0.292969 0 0 0.292969 1.52588e-05 0)" d="M778.352 71.655C790.665 65.2546 809.705 60.4224 823.424 64.6384C825.625 65.315 827.696 66.3486 828.776 68.4888C829.895 70.7066 829.536 72.3664 828.674 74.5805C828.593 74.7891 828.506 74.9952 828.422 75.2026C807.545 61.0691 785.063 75.4361 778.352 71.655Z"/>
	<path fill="#7CB575" transform="matrix(0.292969 0 0 0.292969 1.52588e-05 0)" d="M701.43 141.125C703.424 147.075 704.364 152.681 704.758 158.944C705.059 163.717 703.395 174.63 705.211 178.422C703.706 181.461 701.14 184.502 699.222 187.356Q694.226 194.706 689.761 202.391C693.079 184.657 694.586 165.941 696.101 147.955L701.43 141.125Z"/>
	<path fill="#F99C59" transform="matrix(0.292969 0 0 0.292969 1.52588e-05 0)" d="M321.119 871.48C321.786 870.91 321.547 871.033 322.229 870.705Q340.184 861.949 357.417 851.845C367.134 846.078 376.607 839.813 386.614 834.558C389.067 837.387 391.432 840.152 393.459 843.307C377.838 852.529 362.287 861.66 346.39 870.413C340.249 873.795 334.05 877.784 327.644 880.589L321.119 871.48Z"/>
	<path fill="#D1E0AC" transform="matrix(0.292969 0 0 0.292969 1.52588e-05 0)" d="M809.45 254.137C852.485 249.296 895.717 258.582 929.945 286.061C949.616 301.854 969.458 328.619 973.318 354.081L973.08 355.085L972.477 355.427C970.361 352.335 969.196 347.989 967.586 344.556C964.581 338.148 960.779 331.795 956.783 325.954Q955.004 323.356 953.12 320.832Q951.237 318.309 949.252 315.864Q947.268 313.42 945.185 311.058Q943.102 308.696 940.925 306.421Q938.748 304.146 936.48 301.962Q934.212 299.777 931.857 297.687Q929.502 295.597 927.064 293.604Q924.625 291.612 922.108 289.72Q919.591 287.829 916.998 286.041Q914.406 284.254 911.743 282.574Q909.08 280.893 906.351 279.323Q903.621 277.752 900.83 276.294Q898.039 274.836 895.191 273.493Q892.343 272.15 889.443 270.924Q886.542 269.698 883.594 268.592Q880.647 267.485 877.656 266.499C864.925 262.36 851.806 259.995 838.587 258.04C832.59 257.153 813.485 256.671 809.45 254.137Z"/>
	<path fill="#F99C59" transform="matrix(0.292969 0 0 0.292969 1.52588e-05 0)" d="M198.154 929.644C213.221 924.321 227.571 917.422 242.053 910.722C255.039 904.714 268.152 898.891 280.986 892.564C289.118 888.554 306.52 878.112 314.207 876.106L320.494 884.129C304.534 893.371 287.464 901.15 270.711 908.856C248.651 919.002 226.615 928.772 203.91 937.417C201.995 934.824 200.106 932.208 198.154 929.644Z"/>
	<path fill="#7CB575" transform="matrix(0.292969 0 0 0.292969 1.52588e-05 0)" d="M710.526 176.87C710.666 176.831 710.807 176.793 710.946 176.752C716.599 175.062 722.577 169.875 728.714 173.344C729.665 173.881 730.391 174.732 730.671 175.801C731.857 180.335 727.189 187.218 724.559 190.784C719.92 197.074 709.946 208.024 708.205 215.524C708.443 216.429 708.502 216.738 709.135 217.463C706.753 220.673 703.251 223.633 700.425 226.529L679.382 247.903Q682.524 236.17 685.331 224.353C686.457 219.755 687.25 214.215 689.273 209.968C692.371 203.465 696.989 197.023 700.865 190.918C703.749 186.375 706.812 180.736 710.526 176.87Z"/>
	<path fill="#F99C59" transform="matrix(0.292969 0 0 0.292969 1.52588e-05 0)" d="M393.833 831.343C421.248 816.37 446.985 798.075 472.333 779.912C482.657 772.515 496.353 763.466 505.307 754.921Q509.172 759.247 512.791 763.782C507.758 768.125 502.03 771.818 496.603 775.66C486.821 782.586 477.009 789.365 467.093 796.097Q446.549 810.048 425.696 823.532C417.243 829.031 408.801 834.868 399.953 839.701C397.971 836.864 395.995 834.047 393.833 831.343Z"/>
	<path fill="#F27E50" transform="matrix(0.292969 0 0 0.292969 1.52588e-05 0)" d="M369.499 816.334C375.07 822.129 381.886 828.115 386.614 834.558C376.607 839.813 367.134 846.078 357.417 851.845Q340.184 861.949 322.229 870.705C321.547 871.033 321.786 870.91 321.119 871.48C316.46 865.263 311.537 859.225 306.714 853.133C319.941 845.026 333.389 837.285 346.865 829.59C354.352 825.315 362.535 821.401 369.499 816.334Z"/>
	<path fill="#FDC084" transform="matrix(0.292969 0 0 0.292969 1.52588e-05 0)" d="M109.496 767.662C114.275 754.691 119.784 742.026 125.037 729.247Q150.444 667.542 180.156 607.79C185.402 597.211 192.492 579.775 198.984 570.668Q201.9 576.281 204.946 581.825C195.629 603.537 185.146 624.52 174.931 645.811C170.324 655.414 166.204 665.215 161.742 674.881C157.943 683.11 153.771 691.159 149.999 699.404C141.334 718.342 133.299 737.659 125.01 756.771C122.217 763.213 119.856 769.907 116.773 776.21Q113.202 771.878 109.496 767.662Z"/>
	<defs>
		<linearGradient id="gradient_1" gradientUnits="userSpaceOnUse" x1="194.63194" y1="939.27429" x2="58.090824" y2="859.46295">
			<stop offset="0" stop-color="#FB9B53"/>
			<stop offset="1" stop-color="#FFC388"/>
		</linearGradient>
	</defs>
	<path fill="url(#gradient_1)" transform="matrix(0.292969 0 0 0.292969 1.52588e-05 0)" d="M106.219 775.747C108.984 778.785 111.387 782.208 113.678 785.611C102.877 807.696 94.731 830.994 86.6313 854.163C81.7466 868.136 76.2004 882.533 73.301 897.078C70.8387 907.153 57.5301 952.388 61.85 959.428C63.5063 962.127 66.7769 963.287 69.7294 963.863C91.9879 968.205 148.834 948.048 171.168 939.902C177.656 937.535 183.956 934.617 190.493 932.408C192.665 934.828 194.659 937.4 196.685 939.942C196.068 940.235 195.455 940.524 194.825 940.79C163.836 953.861 128.889 963.293 95.7481 969.122C84.3984 971.119 68.2835 975.035 57.3622 970.189C55.063 969.169 53.6259 967.918 52.788 965.494C44.708 942.12 85.2316 830.505 95.245 803.841C98.7507 794.505 101.966 784.748 106.219 775.747Z"/>
	<path fill="#F27E50" transform="matrix(0.292969 0 0 0.292969 1.52588e-05 0)" d="M299.412 856.402C304.392 862.767 309.933 869.267 314.207 876.106C306.52 878.112 289.118 888.554 280.986 892.564C268.152 898.891 255.039 904.714 242.053 910.722C227.571 917.422 213.221 924.321 198.154 929.644C192.771 923.185 187.38 916.706 181.491 910.699C189.834 908.235 198.197 904.355 206.254 901.038C231.697 890.563 256.414 878.589 280.983 866.244C286.241 863.602 295.104 860.222 299.412 856.402Z"/>
	<path fill="#F27E50" transform="matrix(0.292969 0 0 0.292969 1.52588e-05 0)" d="M490.686 737.866L505.307 754.921C496.353 763.466 482.657 772.515 472.333 779.912C446.985 798.075 421.248 816.37 393.833 831.343C389.194 825.062 383.825 819.409 378.51 813.707C384.38 811.252 395.849 802.862 401.881 799.001Q430.796 780.842 458.727 761.204C469.51 753.605 479.91 745.482 490.686 737.866Z"/>
	<path fill="#F27E50" transform="matrix(0.292969 0 0 0.292969 1.52588e-05 0)" d="M73.301 897.078C73.3947 897.253 73.5046 897.42 73.5821 897.603C73.9671 898.511 73.9697 899.111 74.0659 900.066C75.0087 909.425 79.1809 919.332 86.7012 925.231C95.0309 931.765 105.712 931.863 115.718 930.446C128.346 928.656 162.576 919.508 173.002 913.34Q181.871 922.761 190.493 932.408C183.956 934.617 177.656 937.535 171.168 939.902C148.834 948.048 91.9879 968.205 69.7294 963.863C66.7769 963.287 63.5063 962.127 61.85 959.428C57.5301 952.388 70.8387 907.153 73.301 897.078Z"/>
	<path fill="#F99C59" transform="matrix(0.292969 0 0 0.292969 1.52588e-05 0)" d="M767.798 469.974C769.924 474.007 772.668 478.548 773.528 483.061C774.8 489.734 770.376 504.832 768.345 511.334Q767.27 514.88 765.969 518.349Q764.668 521.818 763.145 525.196Q761.623 528.574 759.885 531.846Q758.148 535.119 756.203 538.272C747.911 551.92 737.862 564.154 727.509 576.265C693.902 615.58 654.641 650.425 615.063 683.6Q588.06 706.559 560.047 728.274C547.694 737.727 531.618 751.91 518.592 759.051C518.447 759.131 518.297 759.203 518.15 759.279L511.742 750.26C516.21 746.109 522.54 743.039 527.581 739.51Q544.794 727.339 561.581 714.587C587.096 694.97 613.741 674.673 637.849 653.413C644.632 647.431 651.033 640.964 657.558 634.699C674 618.911 689.975 602.875 705.15 585.849C724.263 564.403 738.478 548.287 751.341 522.261C756.816 511.183 761.791 498.81 764.613 486.768C765.537 482.827 766.428 473.207 767.509 470.627C767.601 470.407 767.702 470.192 767.798 469.974Z"/>
	<path fill="#F27E50" transform="matrix(0.292969 0 0 0.292969 1.52588e-05 0)" d="M760.834 457.503C763.213 461.435 766.215 465.667 767.798 469.974C767.702 470.192 767.601 470.407 767.509 470.627C766.428 473.207 765.537 482.827 764.613 486.768C761.791 498.81 756.816 511.183 751.341 522.261C738.478 548.287 724.263 564.403 705.15 585.849C689.975 602.875 674 618.911 657.558 634.699C651.033 640.964 644.632 647.431 637.849 653.413C613.741 674.673 587.096 694.97 561.581 714.587Q544.794 727.339 527.581 739.51C522.54 743.039 516.21 746.109 511.742 750.26Q504.366 740.989 496.893 731.797C505.819 724.337 515.89 718.097 525.347 711.314C534.245 704.932 542.715 697.98 551.37 691.278C556.337 687.431 561.951 683.972 566.375 679.527C561.296 677.816 550.648 676.487 546.955 673.199C553.049 671.106 561.279 674.308 567.093 676.399C569.505 675.37 570.504 674.456 572.013 672.351C574.531 674.446 577.986 675.231 581.048 676.248C579.224 674.38 577.122 672.783 575.104 671.13C578.154 669.149 590.048 659.135 591.057 656.41C594.348 655.8 597.772 655.782 601.106 655.238Q605.305 654.55 609.442 653.555Q613.579 652.559 617.631 651.263Q621.684 649.966 625.63 648.375Q629.576 646.783 633.395 644.906C661.922 630.857 677.697 603.534 687.696 574.532C692.26 571.783 696.434 565.33 700.089 561.336C703.007 558.148 706.12 555.133 709.204 552.106Q711.494 552.313 713.792 552.246C716.959 552.157 721.901 551.119 724.083 548.59C724.871 547.677 724.742 547.466 724.613 546.346C722.382 544.109 719.454 544.379 716.53 544.293C718.001 539.236 724.414 532.08 727.426 527.442C741.563 505.671 755.261 483.231 760.834 457.503Z"/>
	<path fill="#541822" transform="matrix(0.292969 0 0 0.292969 1.52588e-05 0)" d="M546.955 673.199C553.049 671.106 561.279 674.308 567.093 676.399C569.745 677.51 575.621 679.227 576.923 681.992C574.41 683.077 568.862 680.393 566.375 679.527C561.296 677.816 550.648 676.487 546.955 673.199Z"/>
	<path fill="#A7CE91" transform="matrix(0.292969 0 0 0.292969 1.52588e-05 0)" d="M778.352 71.655C785.063 75.4361 807.545 61.0691 828.422 75.2026C824.427 82.13 819.282 88.2694 814.295 94.4943C804.618 106.574 794.379 118.17 784.474 130.057C775.834 140.427 766.985 150.956 758.996 161.828C753.196 169.723 748.131 178.334 741.724 185.75C731.925 197.092 719.726 206.803 709.135 217.463C708.502 216.738 708.443 216.429 708.205 215.524C709.946 208.024 719.92 197.074 724.559 190.784C727.189 187.218 731.857 180.335 730.671 175.801C730.391 174.732 729.665 173.881 728.714 173.344C722.577 169.875 716.599 175.062 710.946 176.752C710.807 176.793 710.666 176.831 710.526 176.87C714.276 171.013 732.218 149.687 733.358 146.676C733.48 146.354 733.335 145.988 733.323 145.644L732.247 144.886C727.954 146.283 709.201 173.341 705.211 178.422C703.395 174.63 705.059 163.717 704.758 158.944C704.364 152.681 703.424 147.075 701.43 141.125C704.646 135.466 709.5 130.255 713.784 125.358C728.731 108.276 744.229 93.8002 762.811 80.7621C767.545 77.4407 772.844 73.5192 778.352 71.655Z"/>
	<path fill="#FDC084" transform="matrix(0.292969 0 0 0.292969 1.52588e-05 0)" d="M202.787 563.156C208.233 550.77 214.805 538.824 221.086 526.846Q237.324 496 254.14 465.466C281.037 416.644 308.781 368.081 340.426 322.162C357.433 297.485 374.855 273.007 397.32 252.871C410.562 241.002 425.167 231.306 442.397 226.387C496.803 210.855 553.825 228.95 601.538 255.456C622.33 267.006 643.617 279.169 662.664 293.437C675.815 303.288 688.179 314.95 699.839 326.521C727.704 354.176 755.819 386.043 766.841 424.628C766.326 425.425 766.693 425.113 765.649 425.447C762.523 422.961 754.18 404.685 751.24 399.664C748.185 394.446 744.831 389.366 741.54 384.292C729.852 366.278 713.98 350.597 698.821 335.527C650.03 287.021 561.149 231.26 490.475 231.576C452.765 231.745 424.915 239.264 398.547 267.761C390.723 276.217 383.95 285.821 375.811 293.94L375.339 294.403C374.451 292.537 373.608 290.006 371.53 289.223C370.825 288.958 370.553 289.252 369.9 289.51C368.568 291.104 368.402 292.996 368.091 294.986C368.003 295.932 367.926 296.9 367.809 297.843C367.14 303.248 324.419 363.693 318.277 373.205C300.365 400.949 284.328 430.166 269.135 459.477C254.334 484.811 241.086 510.831 227.659 536.89C224.809 542.421 221.552 547.749 218.65 553.255C216.421 557.485 211.109 571.652 208.858 574.018C206.592 570.515 204.699 566.856 202.787 563.156Z"/>
	<path fill="#A7CE91" transform="matrix(0.292969 0 0 0.292969 1.52588e-05 0)" d="M652.17 48.074C654.927 47.805 657.711 47.6816 660.422 48.3603C667.526 50.1386 672.71 55.4997 676.387 61.5753C683.179 72.7986 685.443 85.9194 687.167 98.7252C692.923 141.471 688.262 188.987 678.501 230.902C674.318 248.862 667.401 265.91 663.113 283.761Q654.905 277.406 646.402 271.45C651.252 253.656 654.267 234.81 656.886 216.579C659.722 196.829 662.11 177.37 662.849 157.409C663.053 149.593 663.314 141.346 662.487 133.565C662.298 131.794 661.827 129.983 660.381 128.883C659.665 129.801 659.742 129.661 659.616 130.704C659.116 134.834 659.994 139.643 660.017 143.868C660.068 153.333 659.762 162.922 659.107 172.366C658.128 186.494 655.779 200.453 653.581 214.428C650.69 232.811 647.697 251.042 643.501 269.186Q637.657 265.169 631.707 261.31C631.536 253.199 630.325 245.061 629.619 236.976Q625.919 197.301 623.311 157.539C622.065 136.869 620.8 115.515 622.996 94.8798C624.158 83.9555 626.562 71.5679 632.423 62.0893C637.092 54.5384 643.55 50.0539 652.17 48.074Z"/>
	<path fill="#A7CE91" transform="matrix(0.292969 0 0 0.292969 1.52588e-05 0)" d="M805.451 254.405L809.45 254.137C813.485 256.671 832.59 257.153 838.587 258.04C851.806 259.995 864.925 262.36 877.656 266.499Q880.647 267.485 883.595 268.592Q886.542 269.698 889.443 270.924Q892.343 272.15 895.191 273.493Q898.039 274.836 900.83 276.294Q903.621 277.752 906.351 279.323Q909.08 280.893 911.743 282.574Q914.406 284.254 916.998 286.041Q919.591 287.829 922.108 289.72Q924.625 291.612 927.064 293.604Q929.502 295.597 931.857 297.687Q934.212 299.777 936.48 301.962Q938.748 304.146 940.925 306.421Q943.102 308.696 945.185 311.058Q947.268 313.42 949.252 315.864Q951.237 318.309 953.12 320.832Q955.004 323.356 956.783 325.954C960.779 331.795 964.581 338.148 967.586 344.556C969.196 347.989 970.361 352.335 972.477 355.427L973.08 355.085L973.318 354.081C973.816 356.3 973.933 358.717 974.06 360.987C974.287 365.058 973.989 370.465 970.994 373.574C965.654 379.117 946.508 367.987 940.65 365.169C871.778 332.036 804.309 308.319 726.839 308.072C716.867 308.649 706.981 310.075 697.034 310.612L692.13 306.292C711.203 294.942 730.641 284.761 750.463 274.801C761.227 269.392 772.045 263.469 783.393 259.381Q788.722 257.425 794.26 256.176Q799.798 254.927 805.451 254.405Z"/>
	<path fill="#541822" transform="matrix(0.292969 0 0 0.292969 1.52588e-05 0)" d="M762.454 280.152C801.722 279.433 839.437 287.372 876.08 301.225C879.894 302.666 890.824 306.261 893.321 308.924C893.443 309.054 893.535 309.209 893.641 309.352L893.381 310.135C891.547 310.345 861.452 299.105 856.492 297.552Q841.806 293.106 826.801 289.895Q821.482 288.709 816.117 287.748Q810.753 286.788 805.353 286.056Q799.953 285.323 794.526 284.819Q789.1 284.316 783.657 284.042Q778.214 283.768 772.764 283.725Q767.315 283.682 761.868 283.869Q756.422 284.056 750.988 284.474Q745.554 284.891 740.143 285.538L740.048 283.491C743.19 279.658 756.987 280.819 762.012 280.209L762.454 280.152Z"/>
	<path fill="#7CB575" transform="matrix(0.292969 0 0 0.292969 1.52588e-05 0)" d="M692.13 306.292C711.203 294.942 730.641 284.761 750.463 274.801C761.227 269.392 772.045 263.469 783.393 259.381Q788.722 257.425 794.26 256.176Q799.798 254.927 805.451 254.405C804.971 255.226 804.567 255.932 803.751 256.463C800.416 258.63 796.389 260.22 792.87 262.121C785.725 265.981 778.709 270.148 771.698 274.246C768.738 275.976 764.868 277.765 762.454 280.152L762.012 280.209C756.987 280.819 743.19 279.658 740.048 283.491L740.143 285.538C741.041 286.937 741.256 287.647 743.015 287.971C749.333 289.136 769.559 286.585 773.023 291.602C773.759 292.668 773.844 293.942 773.548 295.166C773.291 296.224 772.254 297.02 771.326 297.527C761.705 302.782 734.398 300.981 726.839 308.072C716.867 308.649 706.981 310.075 697.034 310.612L692.13 306.292Z"/>
	<path fill="#A7CE91" transform="matrix(0.292969 0 0 0.292969 1.52588e-05 0)" d="M913.492 119.22C921.079 118.89 929.152 119.518 936.619 120.777C949.246 122.907 963.441 128.559 970.937 139.537C974.684 145.023 975.838 151.67 974.589 158.165C972.319 169.966 962.096 178.838 952.233 184.647C935.775 194.341 916.968 200.885 898.992 207.154L842.98 226.276C788.595 245.333 735.251 270.289 687.255 302.36C682.97 298.948 678.839 295.34 674.547 291.928C684.769 283.447 693.854 273.686 704.004 265.099C715.697 255.206 727.452 245.094 739.637 235.818Q746.473 230.624 753.465 225.643Q760.457 220.662 767.6 215.899Q774.743 211.136 782.029 206.596Q789.315 202.056 796.738 197.742Q804.16 193.428 811.712 189.345Q819.265 185.263 826.939 181.415Q834.613 177.567 842.403 173.957Q850.192 170.348 858.089 166.98C865.845 163.657 873.689 160.415 881.663 157.647C888.111 155.409 894.752 153.59 901.138 151.199C902.59 150.655 904.128 150.081 905.278 149.021L904.464 148.637C893.127 149.193 870.965 158.018 859.584 162.808Q853.021 165.622 846.526 168.59Q840.031 171.558 833.608 174.678Q827.184 177.798 820.836 181.069Q814.488 184.339 808.219 187.758Q801.949 191.176 795.762 194.742Q789.575 198.307 783.473 202.017Q777.372 205.727 771.359 209.58Q765.347 213.432 759.426 217.425Q753.506 221.419 747.681 225.55Q741.857 229.681 736.131 233.948Q730.405 238.215 724.781 242.616Q719.158 247.017 713.639 251.549Q708.12 256.081 702.71 260.741Q697.299 265.401 692 270.188Q686.701 274.975 681.516 279.885Q676.33 284.794 671.262 289.825L667.027 286.594C672.155 275.32 673.171 262.856 681.866 253.447C724.69 207.1 783.63 157.092 842.931 134.122Q847.146 132.465 851.426 130.986Q855.707 129.506 860.045 128.205Q864.383 126.904 868.771 125.785Q873.159 124.666 877.59 123.73Q882.022 122.794 886.488 122.043Q890.954 121.293 895.448 120.728Q899.941 120.164 904.454 119.786Q908.967 119.409 913.492 119.22Z"/>
	<path fill="#F99C59" transform="matrix(0.292969 0 0 0.292969 1.52588e-05 0)" d="M375.339 294.403L375.811 293.94C383.95 285.821 390.723 276.217 398.547 267.761C424.915 239.264 452.765 231.745 490.475 231.576C561.149 231.26 650.03 287.021 698.821 335.527C713.98 350.597 729.852 366.278 741.54 384.292C744.831 389.366 748.185 394.446 751.24 399.664C754.18 404.685 762.523 422.961 765.649 425.447C766.693 425.113 766.326 425.425 766.841 424.628L766.961 425.424C765.837 426.258 765.471 426.288 765.223 427.709C764.394 432.455 765.836 441.551 762.944 445.452C755.743 436.305 748.653 426.991 740.898 418.305C719.446 394.276 694.654 373.355 668.712 354.376C662.892 350.118 654.964 342.866 647.884 341.305C646.716 341.601 646.269 341.826 645.578 342.934C644.891 344.035 644.818 345.439 645.173 346.661C645.485 347.737 646.266 348.413 647.112 349.074C651.036 352.136 655.437 354.747 659.535 357.582Q669.62 364.52 679.156 372.195C705.272 393.041 730.228 415.311 750.437 442.129C754.034 446.902 758.195 452.162 760.834 457.503C755.261 483.231 741.563 505.671 727.426 527.442C724.414 532.08 718.001 539.236 716.53 544.293C719.454 544.379 722.382 544.109 724.613 546.346C724.742 547.466 724.871 547.677 724.083 548.59C721.901 551.119 716.959 552.157 713.792 552.246Q711.494 552.313 709.204 552.106C706.12 555.133 703.007 558.148 700.089 561.336C696.434 565.33 692.26 571.783 687.696 574.532C677.697 603.534 661.922 630.857 633.395 644.906Q629.577 646.783 625.63 648.375Q621.684 649.966 617.631 651.263Q613.579 652.559 609.442 653.555Q605.305 654.55 601.106 655.238C597.772 655.782 594.348 655.8 591.057 656.41C590.048 659.135 578.154 669.149 575.104 671.13C577.122 672.783 579.224 674.38 581.048 676.248C577.986 675.231 574.531 674.446 572.013 672.351C570.504 674.456 569.505 675.37 567.093 676.399C561.279 674.308 553.049 671.106 546.955 673.199C550.648 676.487 561.296 677.816 566.375 679.527C561.951 683.972 556.337 687.431 551.37 691.278C542.715 697.98 534.245 704.932 525.347 711.314C515.89 718.097 505.819 724.337 496.893 731.797C488.952 722.45 447.145 677.794 438.847 676.993C437.583 676.871 437.176 677.145 436.09 677.708C435.371 678.665 434.751 679.415 434.962 680.688C435.542 684.182 448.66 694.264 451.991 697.307C465.695 709.828 478.913 723.51 490.686 737.866C479.91 745.482 469.51 753.605 458.727 761.204Q430.796 780.842 401.881 799.001C395.849 802.862 384.38 811.252 378.51 813.707C373.608 808.363 343.569 778.734 338.581 778.517C337.548 778.472 336.252 779.118 335.613 779.92C334.839 780.89 334.796 782.009 335.137 783.149C335.57 784.593 336.82 785.977 337.841 787.038C341.406 790.742 345.811 793.966 349.696 797.346C356.567 803.325 363.271 809.685 369.499 816.334C362.535 821.401 354.352 825.315 346.865 829.59C333.389 837.285 319.941 845.026 306.714 853.133Q297.299 841.859 287.314 831.086Q277.329 820.313 266.801 810.071Q256.272 799.829 245.228 790.145Q234.184 780.461 222.654 771.361C219.752 769.074 213.583 763.013 210.089 762.589Q209.758 762.55 209.424 762.544Q209.091 762.538 208.759 762.566Q208.426 762.594 208.098 762.655Q207.77 762.716 207.45 762.809Q207.13 762.903 206.821 763.028Q206.512 763.153 206.217 763.309Q205.922 763.464 205.644 763.648Q205.366 763.833 205.108 764.044C204.774 765.371 204.827 765.988 205.476 767.225C208.146 772.316 217.09 776.912 221.564 780.495C225.577 783.71 229.466 787.098 233.342 790.476Q259.612 813.398 283.659 838.642C289.035 844.384 294.632 850.148 299.412 856.402C295.104 860.222 286.241 863.602 280.983 866.244C256.414 878.589 231.697 890.563 206.254 901.038C198.197 904.355 189.834 908.235 181.491 910.699C172.766 902.028 138.807 867.755 129.231 867.552C128.113 867.528 127.806 867.903 127.015 868.579C126.492 870.189 126.249 871.543 127.108 873.141C128.646 876.005 142.207 885.138 145.792 888.037C155.509 895.894 164.369 904.319 173.002 913.34C162.576 919.508 128.346 928.656 115.718 930.446C105.712 931.863 95.0309 931.765 86.7012 925.231C79.1809 919.332 75.0087 909.425 74.0659 900.066C73.9697 899.111 73.9671 898.511 73.5821 897.603C73.5046 897.42 73.3947 897.253 73.301 897.078C76.2004 882.533 81.7466 868.136 86.6313 854.163C94.731 830.994 102.877 807.696 113.678 785.611C121.866 796.33 157.191 841.534 166.114 844.259C166.81 844.471 167.746 844.635 168.377 844.216C169.432 843.515 170.238 841.987 170.421 840.742C170.686 838.927 169.984 838.068 168.894 836.713C165.466 832.45 160.884 829.061 157.229 824.948C143.187 809.147 129.244 793.296 116.773 776.21C119.856 769.907 122.217 763.213 125.01 756.771C133.299 737.659 141.334 718.342 149.999 699.404C153.771 691.159 157.943 683.11 161.742 674.881C166.204 665.215 170.324 655.414 174.931 645.811C185.146 624.52 195.629 603.537 204.946 581.825C227.724 617.955 254.591 647.432 285.829 676.3C288.515 678.783 296.508 687.217 299.262 688.134C300.521 688.553 301.607 688.394 302.771 687.764C304.041 687.078 304.282 686.425 304.619 685.097C304.16 682.847 303.018 681.18 301.469 679.504C296.161 673.758 289.573 668.853 283.873 663.459C273.134 653.296 262.743 642.485 252.77 631.568Q240.619 618.115 229.622 603.702Q218.625 589.29 208.858 574.018C211.109 571.652 216.421 557.485 218.65 553.255C221.552 547.749 224.809 542.421 227.659 536.89C241.086 510.831 254.334 484.811 269.135 459.477C284.328 430.166 300.365 400.949 318.277 373.205C324.419 363.693 367.14 303.248 367.809 297.843C367.926 296.9 368.003 295.932 368.091 294.986C368.402 292.996 368.568 291.104 369.9 289.51C370.553 289.252 370.825 288.958 371.53 289.223C373.608 290.006 374.451 292.537 375.339 294.403Z"/>
	<path fill="#541822" transform="matrix(0.292969 0 0 0.292969 1.52588e-05 0)" d="M455.145 248.196C456.502 248.513 457.34 248.738 458.503 249.558C458.664 251.062 458.184 251.464 457.437 252.745C455.975 252.388 455.463 252.365 454.35 251.304C454.21 249.828 454.501 249.493 455.145 248.196Z"/>
	<path fill="#541822" transform="matrix(0.292969 0 0 0.292969 1.52588e-05 0)" d="M294.808 794.813C296.82 795.107 303.996 802.119 305.675 804.138C302.76 804.393 300.866 803.633 298.631 801.687C296.471 799.805 295.038 797.675 294.808 794.813Z"/>
	<path fill="#541822" transform="matrix(0.292969 0 0 0.292969 1.52588e-05 0)" d="M225.925 556.333C226.712 557.012 226.485 556.673 226.908 557.567C228.81 561.599 234.861 567.522 235.397 570.075C235.149 570.029 234.898 569.993 234.651 569.937C231.573 569.233 229.05 566.723 227.462 564.074C225.971 561.586 225.207 559.17 225.925 556.333Z"/>
	<path fill="#541822" transform="matrix(0.292969 0 0 0.292969 1.52588e-05 0)" d="M460.805 519.052C462.433 519.179 463.905 519.511 465.279 520.431C467.906 522.192 469.39 524.468 469.874 527.588C470.623 532.41 469.137 537.426 466.273 541.322C463.232 545.457 459.625 547.542 454.606 548.335C453.162 548.106 451.768 547.876 450.463 547.179C448.1 545.919 446.248 543.91 445.542 541.294C444.492 537.406 445.707 533.196 447.705 529.828C450.626 524.903 455.186 520.513 460.805 519.052Z"/>
	<path fill="#F27E50" transform="matrix(0.292969 0 0 0.292969 1.52588e-05 0)" d="M453.483 525.712C455.401 523.72 457.567 521.183 460.536 521.017C461.807 520.946 463.023 521.619 463.825 522.567C465.709 524.795 465.801 528.815 465.405 531.534C465.057 533.922 464.099 536.193 462.928 538.291C461.164 540.436 459.139 542.611 456.359 543.357C454.789 543.778 453.163 543.619 451.801 542.679C450.252 541.61 449.329 539.777 449.059 537.944C448.348 533.111 450.75 529.401 453.483 525.712Z"/>
	<path fill="#FDC084" transform="matrix(0.292969 0 0 0.292969 1.52588e-05 0)" d="M454.604 528.882C455.987 528.308 456.25 528.008 457.739 528.402C458.579 529.76 458.745 530.713 458.387 532.295C458.139 533.393 457.701 534.152 457.019 535.026C455.419 533.069 455.15 531.29 454.604 528.882Z"/>
	<path fill="#541822" transform="matrix(0.292969 0 0 0.292969 1.52588e-05 0)" d="M675.552 414.52C678.007 414.355 680.05 414.356 682.329 415.395C690.626 419.177 696.014 429.594 698.778 437.826C700.388 442.621 702.398 449.475 699.821 454.205C698.58 456.484 696.783 457.296 694.419 458.089C693.618 458.066 692.799 458.036 692.011 457.88C685.735 456.634 679.477 448.456 676.204 443.319C672.367 437.296 667.844 428.777 669.718 421.447C670.608 417.963 672.585 416.328 675.552 414.52Z"/>
	<path fill="#541822" transform="matrix(0.292969 0 0 0.292969 1.52588e-05 0)" d="M496.396 265.586C503.04 265.073 509.39 265.723 515.713 267.865C522.649 270.215 531.181 274.654 534.3 281.651C535.041 283.312 535.166 284.905 534.455 286.619C533.212 289.614 529.51 291.55 526.631 292.48C517.629 293.035 509.58 291.788 501.341 287.978C496.062 285.536 489.373 281.662 487.466 275.826C486.889 274.06 486.926 272.375 487.837 270.71C489.405 267.842 493.438 266.276 496.396 265.586Z"/>
	<defs>
		<linearGradient id="gradient_2" gradientUnits="userSpaceOnUse" x1="561.15552" y1="621.03827" x2="498.42474" y2="669.60956">
			<stop offset="0" stop-color="#FAA365"/>
			<stop offset="1" stop-color="#FD867B"/>
		</linearGradient>
	</defs>
	<path fill="url(#gradient_2)" transform="matrix(0.292969 0 0 0.292969 1.52588e-05 0)" d="M546.955 673.199L546.927 674.231C544.761 677.369 541.645 680.949 538.174 682.647C533.438 684.964 527.751 684.43 522.873 682.863C506.911 677.737 488.803 662.092 481.277 647.108C478.347 641.275 477.177 635.248 479.394 628.935C482.157 621.063 490.045 613.89 498.64 613.519C502.465 613.354 507.193 615.191 510.601 613.538C527.74 634.444 555.035 653.02 582.501 655.809Q586.772 656.211 591.057 656.41C590.048 659.135 578.154 669.149 575.104 671.13C577.122 672.783 579.224 674.38 581.048 676.248C577.986 675.231 574.531 674.446 572.013 672.351C570.504 674.456 569.505 675.37 567.093 676.399C561.279 674.308 553.049 671.106 546.955 673.199Z"/>
	<path fill="#541822" transform="matrix(0.292969 0 0 0.292969 1.52588e-05 0)" d="M572.013 672.351C567.714 668.984 561.992 666.376 556.822 664.687C554.833 664.038 552.282 663.914 550.571 662.728L550.544 661.625L551.536 660.922C559.328 660.127 569.135 666.694 575.104 671.13C577.122 672.783 579.224 674.38 581.048 676.248C577.986 675.231 574.531 674.446 572.013 672.351Z"/>
	<path fill="#541822" transform="matrix(0.292969 0 0 0.292969 1.52588e-05 0)" d="M401.321 520.225C403.047 521.071 409.309 531.869 411.061 534.182C414.919 539.276 419.191 544.386 423.731 548.895C438.575 563.638 459.364 574.033 478.019 582.973C469.217 591.731 458.795 599.284 448.208 605.712C439.304 610.405 429.805 614.174 419.743 615.348C410.654 616.409 400.609 615.362 393.317 609.32C386.495 603.669 383.361 594.232 382.44 585.678C380.108 564.001 387.727 537.286 401.321 520.225Z"/>
	<path fill="#360212" transform="matrix(0.292969 0 0 0.292969 1.52588e-05 0)" d="M445.523 603.359C444.156 604.136 442.779 604.916 441.352 605.581C429.974 610.886 414.132 613.253 402.114 608.873C396.105 606.683 391.509 602.695 388.861 596.816C386.314 591.16 383.887 577.396 385.903 571.832C389.47 568.9 398.383 569.754 402.769 570.179C407.607 570.648 420.683 572.732 423.597 576.242L423.036 577.332C411.118 572.327 398.904 570.194 386.052 572.363C386.393 582.701 386.478 596.101 394.724 603.697C401.213 609.675 411.309 610.689 419.74 610.099Q422.939 609.868 426.098 609.313Q429.258 608.759 432.345 607.887Q435.431 607.016 438.414 605.836Q441.396 604.655 444.244 603.179C443.187 596.963 441.582 592.249 437.568 587.238C437.362 586.615 437.54 586.342 437.691 585.718L438.367 585.592C441.244 591.967 443.558 596.49 445.523 603.359Z"/>
	<path fill="#FEFEFE" transform="matrix(0.292969 0 0 0.292969 1.52588e-05 0)" d="M413.914 545.456C419.807 549.746 425.046 556.589 431.052 561.321C437.738 566.588 445.596 569.968 452.32 575.073C452.528 576.404 451.916 577.031 451.317 578.196C450.505 578.781 449.761 579.16 448.753 579.313C443.182 580.157 433.328 572.581 429.174 569.184C423.651 564.665 414.549 552.222 413.914 545.456Z"/>
	<path fill="#DD6679" transform="matrix(0.292969 0 0 0.292969 1.52588e-05 0)" d="M386.052 572.363C398.904 570.194 411.118 572.327 423.036 577.332C428.098 580.004 432.474 582.703 436.738 586.523C437.01 586.767 437.291 587 437.568 587.238C441.582 592.249 443.187 596.963 444.244 603.179Q441.396 604.655 438.414 605.836Q435.431 607.016 432.345 607.888Q429.258 608.759 426.098 609.314Q422.939 609.868 419.74 610.099C411.309 610.689 401.213 609.675 394.724 603.697C386.478 596.101 386.393 582.701 386.052 572.363Z"/>
	<path fill="#FEFEFE" transform="matrix(0.292969 0 0 0.292969 1.52588e-05 0)" d="M537.208 488.246C541.691 475.767 563.42 461.051 574.931 455.611C593.015 447.066 613.782 445.521 632.687 452.332C652.602 459.507 667.071 472.752 678.533 490.236C682.602 496.443 686.6 503.438 692.873 507.691C699.659 512.292 708.774 514.272 716.655 511.753C719.604 510.81 722.651 508.986 725.619 508.324C726.888 508.041 727.14 508.195 728.089 508.894C728.198 510.579 727.776 511.589 726.686 512.828C722.156 517.981 713.678 520.854 707.023 521.101C700.475 521.345 695.368 519.307 689.8 516.21C691.207 524.388 691.691 531.732 699.071 537.079C704.138 540.749 710.486 542.909 716.53 544.293C719.454 544.379 722.382 544.109 724.613 546.346C724.742 547.466 724.871 547.677 724.083 548.59C721.901 551.119 716.959 552.157 713.792 552.246Q711.494 552.313 709.204 552.106C706.12 555.133 703.007 558.148 700.089 561.336C696.434 565.33 692.26 571.783 687.696 574.532C677.697 603.534 661.922 630.857 633.395 644.906Q629.577 646.783 625.63 648.375Q621.684 649.966 617.631 651.263Q613.579 652.559 609.442 653.555Q605.305 654.55 601.106 655.238C597.772 655.782 594.348 655.8 591.057 656.41Q586.772 656.211 582.501 655.809C555.035 653.02 527.74 634.444 510.601 613.538C505.774 607.611 490.532 585.38 490.718 577.995C490.743 577.004 491.133 576.911 491.777 576.228C492.586 570.391 491.095 564.077 491.857 558.048C494.698 535.573 510.956 510.725 527.519 495.685C530.495 492.984 534.018 490.708 537.208 488.246Z"/>
	<path fill="#541822" transform="matrix(0.292969 0 0 0.292969 1.52588e-05 0)" d="M537.208 488.246C541.691 475.767 563.42 461.051 574.931 455.611C593.015 447.066 613.782 445.521 632.687 452.332C652.602 459.507 667.071 472.752 678.533 490.236C682.602 496.443 686.6 503.438 692.873 507.691C699.659 512.292 708.774 514.272 716.655 511.753C719.604 510.81 722.651 508.986 725.619 508.324C726.888 508.041 727.14 508.195 728.089 508.894C728.198 510.579 727.776 511.589 726.686 512.828C722.156 517.981 713.678 520.854 707.023 521.101C700.475 521.345 695.368 519.307 689.8 516.21C691.207 524.388 691.691 531.732 699.071 537.079C704.138 540.749 710.486 542.909 716.53 544.293C719.454 544.379 722.382 544.109 724.613 546.346C724.742 547.466 724.871 547.677 724.083 548.59C721.901 551.119 716.959 552.157 713.792 552.246Q711.494 552.313 709.204 552.106C706.12 555.133 703.007 558.148 700.089 561.336C696.434 565.33 692.26 571.783 687.696 574.532C677.697 603.534 661.922 630.857 633.395 644.906Q629.577 646.783 625.63 648.375Q621.684 649.966 617.631 651.263Q613.579 652.559 609.442 653.555Q605.305 654.55 601.106 655.238C597.772 655.782 594.348 655.8 591.057 656.41Q586.772 656.211 582.501 655.809C555.035 653.02 527.74 634.444 510.601 613.538C505.774 607.611 490.532 585.38 490.718 577.995C490.743 577.004 491.133 576.911 491.777 576.228C498.441 584.234 503.433 594.199 509.64 602.672C526.292 625.406 553.654 644.526 581.304 650.462C596.442 653.713 612.325 649.877 625.217 641.49C649.351 625.79 667.756 592.53 673.355 564.816C677.916 542.237 673.751 517.904 660.812 498.704C649.071 481.28 632.657 469.288 611.854 465.41C583.705 460.163 559.706 472.888 537.208 488.246Z"/>
	<path fill="#F99C59" transform="matrix(0.292969 0 0 0.292969 1.52588e-05 0)" d="M691.56 544.609C697.265 548.549 702.423 550.68 709.204 552.106C706.12 555.133 703.007 558.148 700.089 561.336C696.434 565.33 692.26 571.783 687.696 574.532C690 564.514 691.422 554.905 691.56 544.609Z"/>
	<path fill="#541822" transform="matrix(0.292969 0 0 0.292969 1.52588e-05 0)" d="M594.172 497.18C594.556 497.129 594.94 497.073 595.326 497.037C607.592 495.889 620.129 498.524 629.648 506.682C638.649 514.396 642.488 524.549 643.331 536.158C645.042 559.749 633.353 583.511 618.266 601.008C605.138 616.234 586.718 629.7 566.123 631.195C555.28 632.719 544.224 628.596 535.677 622.13C525.573 614.487 519.133 603.632 517.442 591.067C514.585 569.829 523.181 549.931 535.833 533.37C550.004 514.821 570.703 500.24 594.172 497.18Z"/>
	<path fill="#814543" transform="matrix(0.292969 0 0 0.292969 1.52588e-05 0)" d="M599.002 501.213C607.59 500.88 617.495 504.22 624.199 509.586C631.918 515.763 635.72 524.844 636.656 534.508C638.99 558.63 628.815 578.66 613.787 596.803C600.273 613.119 583.891 622.567 562.857 624.444C553.906 624.286 545.456 621.383 538.589 615.59Q537.809 614.941 537.063 614.254Q536.317 613.567 535.606 612.844Q534.894 612.12 534.22 611.362Q533.546 610.604 532.911 609.813Q532.276 609.022 531.681 608.201Q531.086 607.379 530.533 606.529Q529.98 605.678 529.47 604.801Q528.96 603.925 528.495 603.023Q528.029 602.122 527.609 601.198Q527.189 600.275 526.816 599.332Q526.443 598.388 526.118 597.428Q525.792 596.467 525.515 595.491Q525.238 594.515 525.01 593.527Q524.782 592.538 524.604 591.54Q524.426 590.541 524.298 589.535Q524.17 588.528 524.092 587.517C522.444 566.691 533.127 546.657 546.353 531.354C559.957 515.614 577.728 502.831 599.002 501.213Z"/>
	<path fill="#541822" transform="matrix(0.292969 0 0 0.292969 1.52588e-05 0)" d="M590.572 572.076C594.819 571.793 599.39 571.905 603.313 573.712C606.96 575.392 609.733 578.37 611.019 582.187C612.394 586.266 611.848 590.689 609.844 594.463C607.235 599.379 602.794 602.356 597.57 603.919C593.223 604.678 588.946 604.216 585.027 602.105Q584.28 601.712 583.577 601.246Q582.874 600.78 582.221 600.245Q581.568 599.711 580.973 599.113Q580.377 598.515 579.845 597.861Q579.313 597.206 578.849 596.501Q578.386 595.796 577.995 595.048Q577.605 594.3 577.293 593.516Q576.98 592.732 576.748 591.921C575.58 587.807 575.938 583.193 578.234 579.523C581.016 575.074 585.632 573.121 590.572 572.076Z"/>
	<path fill="#FEFEFE" transform="matrix(0.292969 0 0 0.292969 1.52588e-05 0)" d="M592.592 574.606C595.711 574.478 599.156 574.979 601.882 576.579C605.806 578.88 607.204 582.336 608.286 586.501C607.9 587.88 607.467 589.231 606.846 590.526C604.646 595.115 601.046 597.928 596.327 599.584C592.719 599.639 589.411 599.151 586.238 597.325C583.194 595.573 580.733 592.906 579.882 589.432Q579.752 588.883 579.68 588.324Q579.609 587.765 579.597 587.201Q579.585 586.637 579.634 586.075Q579.682 585.513 579.789 584.96Q579.897 584.406 580.063 583.867Q580.228 583.328 580.45 582.81Q580.672 582.292 580.948 581.8Q581.224 581.308 581.55 580.848C584.212 577.02 588.226 575.536 592.592 574.606Z"/>
	<path fill="#541822" transform="matrix(0.292969 0 0 0.292969 1.52588e-05 0)" d="M593.787 504.173C600.985 503.687 608.09 504.442 614.329 508.37C621.105 512.636 626.459 519.928 628.201 527.775C630.097 536.313 627.931 545.05 623.257 552.317C617.299 561.583 608.444 566.683 597.89 569.024C590.377 570.067 582.601 569.415 575.947 565.466C569.208 561.467 563.984 554.054 562.205 546.447C560.209 537.911 562.833 528.995 567.523 521.796C573.69 512.328 582.812 506.462 593.787 504.173Z"/>
	<path fill="#FEFEFE" transform="matrix(0.292969 0 0 0.292969 1.52588e-05 0)" d="M593.686 506.095C599.953 505.674 606.218 506.588 611.725 509.784Q612.328 510.126 612.913 510.499Q613.498 510.872 614.064 511.273Q614.629 511.675 615.174 512.105Q615.718 512.534 616.24 512.991Q616.762 513.448 617.261 513.93Q617.759 514.413 618.232 514.92Q618.705 515.427 619.152 515.958Q619.599 516.488 620.019 517.041Q620.438 517.593 620.83 518.166Q621.221 518.739 621.582 519.331Q621.944 519.922 622.275 520.532Q622.606 521.141 622.906 521.767Q623.206 522.392 623.474 523.032Q623.742 523.672 623.978 524.324Q624.213 524.977 624.415 525.64Q624.617 526.304 624.785 526.977C626.596 534.243 624.738 541.227 621.005 547.513C615.933 556.052 608.4 560.895 598.93 563.379C591.98 564.881 584.469 564.281 578.268 560.608Q577.727 560.285 577.204 559.935Q576.681 559.584 576.176 559.208Q575.671 558.831 575.187 558.429Q574.702 558.027 574.238 557.601Q573.775 557.174 573.333 556.725Q572.892 556.275 572.475 555.804Q572.057 555.333 571.664 554.84Q571.271 554.348 570.904 553.837Q570.537 553.325 570.196 552.795Q569.856 552.266 569.543 551.719Q569.23 551.173 568.945 550.611Q568.66 550.049 568.405 549.473Q568.149 548.898 567.924 548.31Q567.698 547.722 567.502 547.123Q567.307 546.524 567.143 545.917Q566.978 545.309 566.845 544.693C565.034 536.572 566.965 528.053 571.488 521.154C576.762 513.11 584.263 507.984 593.686 506.095Z"/>
	<path fill="#FEFEFE" transform="matrix(0.292969 0 0 0.292969 1.52588e-05 0)" d="M413.905 309.846C408.81 303.51 403.926 296.437 405.034 287.796C405.445 284.596 407.559 279.454 410.271 277.535C410.874 277.108 411.246 277.288 411.938 277.333C418.009 283.446 413.615 298.614 426.645 308.427C449.567 307.85 469.588 312.922 486.566 329.139C501.442 343.35 510.081 362.105 510.374 382.733C510.635 401.112 501.491 429.205 488.075 442.194C487.455 442.794 487.044 443.077 486.217 443.332C474.656 462.016 447.927 487.951 429.285 499.384C423.273 503.07 416.884 505.959 410.003 507.575C406.636 508.366 403.247 508.688 399.805 508.935C404.774 511.136 410.249 512.293 415.301 514.435C396.019 513.148 382.583 507.931 366.41 497.79C365.72 500.307 365.057 502.898 364.057 505.312C361.977 510.336 358.721 514.081 353.581 516.107C342.358 520.53 325.915 516.65 315.39 511.801C298.339 503.946 282.669 488.491 274.094 471.83C272.035 467.829 270.699 463.674 269.135 459.477C284.328 430.166 300.365 400.949 318.277 373.205C324.419 363.693 367.14 303.248 367.809 297.843C367.926 296.9 368.003 295.932 368.091 294.986C368.402 292.996 368.568 291.104 369.9 289.51C370.553 289.252 370.825 288.958 371.53 289.223C373.608 290.006 374.451 292.537 375.339 294.403C378.057 302.585 385.008 309.281 392.379 313.413C399.454 311.464 406.549 310.055 413.905 309.846Z"/>
	<path fill="#541822" transform="matrix(0.292969 0 0 0.292969 1.52588e-05 0)" d="M413.905 309.846C408.81 303.51 403.926 296.437 405.034 287.796C405.445 284.596 407.559 279.454 410.271 277.535C410.874 277.108 411.246 277.288 411.938 277.333C418.009 283.446 413.615 298.614 426.645 308.427C449.567 307.85 469.588 312.922 486.566 329.139C501.442 343.35 510.081 362.105 510.374 382.733C510.635 401.112 501.491 429.205 488.075 442.194C487.455 442.794 487.044 443.077 486.217 443.332C489.01 436.666 491.854 430.06 493.762 423.071C498.52 405.636 497.36 385.765 490.461 369.053C483.646 352.545 471.376 339.964 454.818 333.189C432.575 324.088 406.277 324.901 384.263 334.289C357.756 345.593 334.659 370.282 323.959 397.037C318.061 411.785 316.871 422.356 323.22 437.013C335.993 466.498 365.965 495.861 396.051 507.557C397.296 508.041 398.533 508.527 399.805 508.935C404.774 511.136 410.249 512.293 415.301 514.435C396.019 513.148 382.583 507.931 366.41 497.79C348.444 485.185 332.089 467.718 322.743 447.726C313.127 427.155 311.724 404.05 319.685 382.663C329.972 355.031 353.49 330.08 380.181 317.744C372.824 311.035 368.95 305.085 368.091 294.986C368.402 292.996 368.568 291.104 369.9 289.51C370.553 289.252 370.825 288.958 371.53 289.223C373.608 290.006 374.451 292.537 375.339 294.403C378.057 302.585 385.008 309.281 392.379 313.413C399.454 311.464 406.549 310.055 413.905 309.846Z"/>
	<path fill="#F27E50" transform="matrix(0.292969 0 0 0.292969 1.52588e-05 0)" d="M269.135 459.477C284.328 430.166 300.365 400.949 318.277 373.205C324.419 363.693 367.14 303.248 367.809 297.843C367.926 296.9 368.003 295.932 368.091 294.986C368.95 305.085 372.824 311.035 380.181 317.744C353.49 330.08 329.972 355.031 319.685 382.663C311.724 404.05 313.127 427.155 322.743 447.726C332.089 467.718 348.444 485.185 366.41 497.79C365.72 500.307 365.057 502.898 364.057 505.312C361.977 510.336 358.721 514.081 353.581 516.107C342.358 520.53 325.915 516.65 315.39 511.801C298.339 503.946 282.669 488.491 274.094 471.83C272.035 467.829 270.699 463.674 269.135 459.477Z"/>
	<path fill="#541822" transform="matrix(0.292969 0 0 0.292969 1.52588e-05 0)" d="M313.735 469.129C315.113 468.995 315.389 468.653 316.541 469.516L316.345 470.277C312.303 473.52 304.597 474.737 299.619 476.156L297.868 476.538L297.313 476.171C297.474 475.702 297.468 475.612 297.83 475.168C300.807 471.519 309.327 469.905 313.735 469.129Z"/>
	<path fill="#360212" transform="matrix(0.292969 0 0 0.292969 1.52588e-05 0)" d="M291.347 450.713C298.63 450.227 304.354 452.841 310.281 456.718C307.234 456.277 304.2 455.673 301.169 455.125C294.548 453.991 287.731 453.567 281.039 452.991C284.505 451.634 287.674 451.056 291.347 450.713Z"/>
	<path fill="#541822" transform="matrix(0.292969 0 0 0.292969 1.52588e-05 0)" d="M300.808 460.6C304.415 460.252 307.383 460.499 310.881 461.336L311.371 462.473C306.84 463.907 301.413 463.887 296.662 464.889C294.015 465.473 289.657 466.976 287.153 465.675C289.449 462.673 297.231 461.338 300.808 460.6Z"/>
	<path fill="#541822" transform="matrix(0.292969 0 0 0.292969 1.52588e-05 0)" d="M428.58 363.207C441.24 362.817 454.145 365.213 464.406 373.112C473.304 379.962 477.964 390.426 479.327 401.375C481.984 422.736 474.598 442.292 461.439 458.898C446.847 477.312 424.715 491.806 401.125 494.495C387.665 495.107 374.884 492.861 364.252 484.036C354.863 476.242 349.453 464.775 348.448 452.685C346.771 432.504 357.293 409.742 370.207 394.743C384.736 377.869 406.042 364.873 428.58 363.207Z"/>
	<path fill="#814543" transform="matrix(0.292969 0 0 0.292969 1.52588e-05 0)" d="M432.343 368.721C442.369 367.824 454.614 371.382 462.354 377.86C469.876 384.156 473.211 392.991 473.947 402.574C475.487 422.63 466.958 442.759 453.916 457.684C438.996 474.758 420.548 486.172 397.623 487.793C387.112 488.154 376.055 485.565 367.908 478.624C360.188 472.046 356.427 462.948 355.664 452.98C354.195 433.783 363.144 414.786 375.48 400.587C391.23 382.459 407.902 370.457 432.343 368.721Z"/>
	<path fill="#541822" transform="matrix(0.292969 0 0 0.292969 1.52588e-05 0)" d="M427.123 435.59C431.246 435.415 435.279 435.75 438.954 437.828C442.304 439.721 444.7 442.77 445.643 446.512C446.795 451.078 445.936 456.11 443.478 460.109C440.489 464.975 436.124 467.26 430.79 468.66C426.307 469.021 421.95 468.63 418.054 466.188Q417.422 465.796 416.832 465.344Q416.242 464.891 415.7 464.381Q415.158 463.872 414.669 463.311Q414.181 462.75 413.751 462.143Q413.321 461.536 412.954 460.889Q412.587 460.242 412.286 459.562Q411.985 458.882 411.753 458.175Q411.522 457.468 411.362 456.742C410.35 452.117 411.418 446.999 414.094 443.108C417.273 438.486 421.815 436.602 427.123 435.59Z"/>
	<path fill="#FEFEFE" transform="matrix(0.292969 0 0 0.292969 1.52588e-05 0)" d="M428.559 438.581C430.844 438.644 433.107 439.061 435.18 440.047C437.994 441.385 440.106 443.507 441.095 446.495C442.197 449.821 441.756 453.343 440.129 456.415C437.673 461.053 433.725 463.17 428.901 464.586C425.72 464.651 422.773 464.014 420.097 462.207Q419.634 461.892 419.204 461.534Q418.775 461.175 418.383 460.775Q417.991 460.375 417.641 459.939Q417.291 459.502 416.985 459.033Q416.68 458.564 416.423 458.067Q416.165 457.57 415.958 457.05Q415.752 456.53 415.597 455.992Q415.443 455.454 415.343 454.903C414.674 451.419 415.572 447.952 417.589 445.068C420.28 441.22 424.096 439.5 428.559 438.581Z"/>
	<path fill="#541822" transform="matrix(0.292969 0 0 0.292969 1.52588e-05 0)" d="M434.113 370.185C434.282 370.167 434.45 370.141 434.62 370.13C442.272 369.652 449.505 372.586 455.01 377.837C461.335 383.869 465.458 393.006 465.463 401.776C465.468 410.559 461.307 418.373 455.099 424.369C447.981 431.243 439.408 434.625 429.553 434.443C421.76 433.815 413.697 432.619 407.27 427.783C402.113 423.903 399.053 418.399 398.134 412.037C396.869 403.288 399.689 394.786 404.923 387.797C412.134 378.165 422.199 371.825 434.113 370.185Z"/>
	<path fill="#FEFEFE" transform="matrix(0.292969 0 0 0.292969 1.52588e-05 0)" d="M436.356 372.69C442.339 372.684 448.699 375.398 453.052 379.41C458.462 384.397 461.119 391.583 461.401 398.826Q461.435 399.54 461.433 400.254Q461.431 400.969 461.392 401.682Q461.354 402.396 461.279 403.107Q461.205 403.817 461.095 404.523Q460.984 405.229 460.838 405.929Q460.692 406.628 460.511 407.319Q460.329 408.011 460.113 408.692Q459.897 409.373 459.647 410.042Q459.396 410.711 459.112 411.367Q458.828 412.023 458.512 412.663Q458.195 413.304 457.846 413.927Q457.497 414.551 457.117 415.156Q456.737 415.761 456.327 416.346Q455.916 416.932 455.477 417.495Q455.038 418.059 454.57 418.599Q454.103 419.14 453.609 419.656C447.093 426.357 437.932 429.299 428.772 429.563C422.34 429.585 415.319 428.085 410.125 424.115C405.718 420.746 403.201 415.893 402.553 410.42C401.541 401.875 405.172 393.531 410.489 387.017C417.098 378.921 425.939 373.737 436.356 372.69Z"/>
</svg>
