<?xml version="1.0" encoding="utf-8" ?>
<svg xmlns="http://www.w3.org/2000/svg" xmlns:xlink="http://www.w3.org/1999/xlink" width="200" height="200">
	<path fill="#FEFEFE" fill-opacity="0" transform="scale(0.195312 0.195312)" d="M0 0L1024 0L1024 1024L0 1024L0 0Z"/>
	<path fill="#BD5553" transform="scale(0.195312 0.195312)" d="M859.666 228.095L861.272 221.915C863.152 223.818 866.121 227.733 868.654 228.565C865.625 228.529 862.749 227.996 859.666 228.095Z"/>
	<path fill="#FCF0E9" transform="scale(0.195312 0.195312)" d="M514.409 84.6197C519.32 82.958 531.85 83.8103 536.628 85.7331L535.795 85.5071L535.163 85.9429Q524.627 85.5317 514.083 85.3923L514.409 84.6197Z"/>
	<path fill="#FCF0E9" transform="scale(0.195312 0.195312)" d="M789.111 191.838L790.26 192.042C796.776 195.125 807.405 205.653 810.811 212.092C803.674 205.223 795.919 199.044 789.111 191.838Z"/>
	<path fill="#530102" transform="scale(0.195312 0.195312)" d="M915.217 811.147C922.029 812.985 925.765 815.68 929.399 821.838L927.637 824.365C925.3 819.148 921.624 816.375 916.774 813.667L915.217 811.147Z"/>
	<path fill="#810402" transform="scale(0.195312 0.195312)" d="M181.219 898.996C182.615 901.321 183.44 903.835 184.354 906.375C178.963 904.649 173.582 903.213 168.073 901.917C168.137 901.806 168.222 901.704 168.265 901.583C168.488 900.955 168.455 900.571 168.814 899.964C169.108 900.018 169.406 900.055 169.696 900.126C170.734 900.382 171.277 900.643 172.348 900.401C172.619 900.34 172.888 900.268 173.158 900.202C175.025 900.663 177.096 901.631 178.899 900.931L178.792 899.049L180.353 900.761C180.628 900.159 180.913 899.582 181.219 898.996Z"/>
	<path fill="#530102" transform="scale(0.195312 0.195312)" d="M929.399 821.838C932.028 827.739 932.921 835.66 930.488 841.833C930.018 843.026 929.507 843.657 928.43 844.39C926.783 844.453 925.894 844.299 924.663 843.139C924.057 842.568 923.491 841.945 922.947 841.315L926.313 841.356L927.044 841.692C927.768 841.347 928.013 841.389 928.405 840.639C930.718 836.212 929.259 828.786 927.637 824.365L929.399 821.838Z"/>
	<path fill="#810402" transform="scale(0.195312 0.195312)" d="M396.356 867.823C393.053 866.285 389.766 863.938 387.433 861.147C385.43 858.749 383.451 855.01 384.033 851.758C384.256 850.518 384.715 849.567 385.806 848.874C388.166 847.374 391.489 847.65 394.071 848.222L393.659 850.661C391.456 850.268 388.892 849.619 386.893 850.977C386.176 851.464 386.22 852.017 385.994 852.799C386.799 857.191 390.533 860.948 394.094 863.414C395.731 864.548 397.432 865.584 399.082 866.699L398.576 867.695L396.929 867.35L396.356 867.823Z"/>
	<path fill="#530102" transform="scale(0.195312 0.195312)" d="M212.616 553.126L216.287 555.095C222.894 562.65 236.878 569.091 246.726 570.721L245.893 572.065C239.981 571.355 233.553 568.971 228.108 566.584C221.726 563.786 215.28 559.9 212.616 553.126Z"/>
	<path fill="#810402" transform="scale(0.195312 0.195312)" d="M922.947 841.315C918.547 834.201 914.089 825.576 911.37 817.662C910.776 815.932 910.186 814.303 911.025 812.569C912.281 811.35 913.57 811.347 915.217 811.147L916.774 813.667C915.681 813.624 914.243 813.363 913.228 813.755C913.319 813.904 913.456 814.033 913.502 814.201C913.574 814.463 913.529 814.745 913.575 815.012C914.509 820.441 922.957 836.879 926.313 841.356L922.947 841.315Z"/>
	<path fill="#BD5553" transform="scale(0.195312 0.195312)" d="M102.473 705.443C107.46 703.593 112.999 702.303 118.191 701.167C114.69 706.129 111.315 711.117 108.745 716.635C106.454 712.998 104.653 709.132 102.473 705.443Z"/>
	<path fill="#BD5553" transform="scale(0.195312 0.195312)" d="M169.541 204.406C172.351 200.774 176.12 194.416 180.89 193.306C184.824 192.391 190.551 194.82 193.876 196.82C186.645 200.36 177.415 202.731 169.541 204.406Z"/>
	<path fill="#810402" transform="scale(0.195312 0.195312)" d="M214.236 545.141C216.223 543.174 218.744 541.973 221.587 541.995C226.931 542.036 232.647 547.01 236.108 550.798C240.536 555.644 248.557 566.366 250.91 572.537L250.53 573.052C248.913 572.85 247.456 572.524 245.893 572.065L246.726 570.721C246.809 568.204 237.029 555.629 234.979 553.272C231.629 549.42 226.737 544.838 221.36 544.674C218.601 544.591 216.874 545.809 214.939 547.62C214.252 550.423 214.334 551.867 215.84 554.364L216.287 555.095L212.616 553.126C212.381 552.314 212.152 551.527 212.079 550.681C211.872 548.253 212.675 546.915 214.236 545.141Z"/>
	<path fill="#530102" transform="scale(0.195312 0.195312)" d="M394.071 848.222C397.602 849.618 403.547 851.721 406.102 854.634C411.184 858.477 416.314 863.837 418.753 869.822C420.765 872.236 421.945 876.137 423.148 879.016C414.156 876.508 404.398 872.51 396.356 867.823L396.929 867.35L398.576 867.695L399.082 866.699C405.59 870.013 412.387 872.643 418.927 875.852C418.255 874.301 417.256 872.554 416.82 870.942C414.327 866.554 411.325 863.046 407.963 859.303C403.489 855.421 399.122 852.907 393.659 850.661L394.071 848.222Z"/>
	<path fill="#E67B78" transform="scale(0.195312 0.195312)" d="M926.313 841.356C922.957 836.879 914.509 820.441 913.575 815.012C913.529 814.745 913.574 814.463 913.502 814.201C913.456 814.033 913.319 813.904 913.228 813.755C914.243 813.363 915.681 813.624 916.774 813.667C921.624 816.375 925.3 819.148 927.637 824.365C929.259 828.786 930.718 836.212 928.405 840.639C928.013 841.389 927.768 841.347 927.044 841.692L926.313 841.356Z"/>
	<path fill="#E67B78" transform="scale(0.195312 0.195312)" d="M399.082 866.699C397.432 865.584 395.731 864.548 394.094 863.414C390.533 860.948 386.799 857.191 385.994 852.799C386.22 852.017 386.176 851.464 386.893 850.977C388.892 849.619 391.456 850.268 393.659 850.661C399.122 852.907 403.489 855.421 407.963 859.303C411.325 863.046 414.327 866.554 416.82 870.942C417.256 872.554 418.255 874.301 418.927 875.852C412.387 872.643 405.59 870.013 399.082 866.699Z"/>
	<path fill="#BD5553" transform="scale(0.195312 0.195312)" d="M151.737 225.35C156.357 218.949 161.221 213.011 166.518 207.171C170.399 215.896 179.549 220.652 187.828 224.293C190.147 225.313 192.934 226.156 194.989 227.634C180.661 227.884 166.099 225.673 151.737 225.35Z"/>
	<path fill="#810402" transform="scale(0.195312 0.195312)" d="M168.073 901.917C154.796 897.594 136.543 890.947 129.836 877.522C128.42 874.688 127.849 871.52 128.965 868.479C130.015 865.617 132.426 863.264 135.237 862.125C140.433 860.019 146.78 861.975 151.662 864.187C166.61 870.96 175.478 884.043 181.219 898.996C180.913 899.582 180.628 900.159 180.353 900.761L178.792 899.049C178.633 898.86 178.469 898.673 178.313 898.481C175.891 895.51 174.375 890.848 172.44 887.433C166.413 876.802 155.529 865.969 142.92 864.057C139.785 863.582 136.57 863.988 134.019 865.994C132.521 867.172 131.555 868.807 131.323 870.708C130.892 874.243 132.876 877.613 135.066 880.212C144.234 891.089 159.998 896.326 173.158 900.202C172.888 900.268 172.619 900.34 172.348 900.401C171.277 900.643 170.734 900.382 169.696 900.126C169.406 900.055 169.108 900.018 168.814 899.964C168.455 900.571 168.488 900.955 168.265 901.583C168.222 901.704 168.137 901.806 168.073 901.917Z"/>
	<path fill="#E67B78" transform="scale(0.195312 0.195312)" d="M214.939 547.62C216.874 545.809 218.601 544.591 221.36 544.674C226.737 544.838 231.629 549.42 234.979 553.272C237.029 555.629 246.809 568.204 246.726 570.721C236.878 569.091 222.894 562.65 216.287 555.095L215.84 554.364C214.334 551.867 214.252 550.423 214.939 547.62Z"/>
	<path fill="#BD5553" transform="scale(0.195312 0.195312)" d="M844.425 265.799C854.992 263.363 866.276 261.381 877.071 260.414C872.388 271.088 867.868 281.83 862.319 292.093C855.905 283.664 850.275 274.625 844.425 265.799Z"/>
	<path fill="#810402" transform="scale(0.195312 0.195312)" d="M872.303 528.926C873.069 528.834 873.45 528.92 874.188 529.094C875.791 530.698 875.959 534.802 876.026 536.987C876.48 551.627 863.305 562.601 853.988 572.158C853.656 572.327 852.853 572.486 852.483 572.588L851.538 572.036C849.902 567.6 852.421 554.482 853.878 549.701C856.747 540.285 863.833 533.495 872.303 528.926Z"/>
	<path fill="#F8E6A6" transform="scale(0.195312 0.195312)" d="M871.264 532.909L872.453 533.174C872.872 533.901 873.035 534.026 873.067 534.899C873.558 548.528 863.857 557.22 855.343 566.483L854.893 566.739C853.752 564.687 855.938 554.69 856.483 551.955C858.228 543.205 864.111 537.557 871.264 532.909Z"/>
	<path fill="#810402" transform="scale(0.195312 0.195312)" d="M908.16 106.566C910.074 106.339 912.758 106.007 914.376 107.285C915.895 108.487 916.295 110.647 916.318 112.478C916.483 125.457 891.999 142.18 883.13 151.067L878.589 156.116C880.442 148.152 882.08 139.932 885.059 132.296C889.614 120.618 896.583 111.699 908.16 106.566Z"/>
	<path fill="#E67B78" transform="scale(0.195312 0.195312)" d="M909.447 108.899C910.872 108.867 911.102 108.92 912.349 109.609C913.099 111.004 913.387 112.031 913.19 113.631C912.055 122.842 894.749 135.666 887.634 141.664C886.88 142.465 886.228 143.06 885.29 143.639L884.823 143.24C884.886 141.693 885.25 140.336 885.749 138.88C890.134 126.077 897.136 115.025 909.447 108.899Z"/>
	<path fill="#810402" transform="scale(0.195312 0.195312)" d="M193.876 196.82C199.217 194.922 205.238 194.204 210.862 193.725C235.738 191.608 261.01 197.282 283.444 208.035C301.127 216.511 319.106 229.284 328.501 246.977L319.922 244.705C321.147 243.734 321.086 243.521 321.488 241.983C320.421 240.489 319.235 239.054 318.057 237.645C298.49 214.234 262.303 199.582 232.486 196.915C214.834 195.336 197.674 198.492 181.037 204.227C177.791 205.346 173.765 206.383 171.104 208.603C171.087 209.646 171.118 209.917 171.793 210.784C173.771 213.325 177.316 215.575 180.057 217.235C198.353 228.311 221.474 231.418 242.344 233.513C242.546 233.645 242.745 233.784 242.951 233.909C243.826 234.442 244.611 234.693 245.53 235.087C246.247 235.395 246.024 235.336 246.65 236.091L246.137 236.882C238.268 236.036 230.396 235.654 222.568 234.388C213.205 232.875 204.104 230.2 194.989 227.634C192.934 226.156 190.147 225.313 187.828 224.293C179.549 220.652 170.399 215.896 166.518 207.171C167.49 206.212 168.524 205.318 169.541 204.406C177.415 202.731 186.645 200.36 193.876 196.82Z"/>
	<path fill="#E67B78" transform="scale(0.195312 0.195312)" d="M173.158 900.202C159.998 896.326 144.234 891.089 135.066 880.212C132.876 877.613 130.892 874.243 131.323 870.708C131.555 868.807 132.521 867.172 134.019 865.994C136.57 863.988 139.785 863.582 142.92 864.057C155.529 865.969 166.413 876.802 172.44 887.433C174.375 890.848 175.891 895.51 178.313 898.481C178.469 898.673 178.633 898.86 178.792 899.049L178.899 900.931C177.096 901.631 175.025 900.663 173.158 900.202Z"/>
	<path fill="#BD5553" transform="scale(0.195312 0.195312)" d="M138.549 302.217L146.373 301.899C141.815 309.524 138.076 317.603 133.765 325.368C124.294 327.595 110.451 327.679 100.495 328.051L92.4972 328.307C95.5792 319.737 99.5733 310.102 104.5 302.431C115.832 302.483 127.231 302.817 138.549 302.217Z"/>
	<path fill="#BD5553" transform="scale(0.195312 0.195312)" d="M646.497 71.6313C656.418 74.3116 669.791 79.8476 679.208 84.3682C679.4 97.7916 685.453 110.604 686.767 123.835C676.306 118.465 665.454 114.172 654.56 109.783C652.832 96.9553 649.129 84.3049 646.497 71.6313Z"/>
	<path fill="#BD5553" transform="scale(0.195312 0.195312)" d="M815.045 172.461C823.023 178.307 835.926 191.093 842.378 198.953C839.487 209.708 836.781 222.327 834.628 233.248C833.187 234.046 831.753 234.902 830.25 235.575C824.656 227.588 817.82 220.672 811.777 213.051C813.711 200.229 814.68 185.43 815.045 172.461Z"/>
	<path fill="#BD5553" transform="scale(0.195312 0.195312)" d="M901.178 718.81L901.249 719.097C898.132 728.334 887.503 741.541 881.822 750Q862.982 749.291 844.167 748.077L843.785 747.4C845.608 743.771 848.418 740.304 850.725 736.946C854.507 731.442 858.184 725.929 861.626 720.205C874.226 722.074 888.522 719.849 901.178 718.81Z"/>
	<path fill="#BD5553" transform="scale(0.195312 0.195312)" d="M583.56 57.2939C595.974 59.992 608.493 61.8885 620.858 64.9283C623.871 77.5008 628.361 89.8485 631.828 102.329C621.337 99.3493 610.15 97.7218 599.958 93.8522C594.907 81.3952 590.328 68.9717 583.56 57.2939Z"/>
	<path fill="#BD5553" transform="scale(0.195312 0.195312)" d="M705.394 95.9708C709.264 97.5615 713.048 99.9468 716.75 101.919C723.348 105.432 730.113 108.767 736.471 112.696C736.564 117.852 737.491 123.158 738.047 128.295Q739.49 140.526 740.051 152.829C729.737 147.895 719.035 140.381 708.743 134.769C707.432 121.864 706.684 108.889 705.394 95.9708Z"/>
	<path fill="#BD5553" transform="scale(0.195312 0.195312)" d="M945.368 598.041L945.707 598.628C944.129 610.015 940.795 621.828 937.364 632.799C924.591 636.37 911.595 639.501 898.726 642.72L898.323 642.1C899.523 637.152 901.64 632.315 903.26 627.481C905.102 621.98 906.59 616.338 908.159 610.753C920.819 607.36 933.195 602.871 945.368 598.041Z"/>
	<path fill="#BD5553" transform="scale(0.195312 0.195312)" d="M761.626 129.113C770.62 135.22 784.597 144.179 792.039 151.605Q791.43 171.836 790.26 192.042L789.111 191.838C784.833 187.981 780.594 184.04 776.15 180.374C772.405 177.283 768.332 174.439 764.773 171.146L764.891 171.258L763.552 169.903L762.249 143.495C762.04 138.74 762.189 133.833 761.626 129.113Z"/>
	<path fill="#BD5553" transform="scale(0.195312 0.195312)" d="M923.15 338.98C927.923 349.129 931.154 361.568 934.436 372.348C925.672 382.877 915.875 392.619 906.071 402.169C905.101 398.553 903.975 394.966 902.919 391.373C901.947 387.561 893.181 357.508 893.215 357.05C895.131 361.581 896.819 366.184 898.521 370.798C903.261 366.295 919.749 344.812 923.15 338.98Z"/>
	<path fill="#BD5553" transform="scale(0.195312 0.195312)" d="M142.642 708.313C145.075 711.111 146.907 715.801 148.796 719.101Q153.901 727.858 159.327 736.421C157.084 740.805 145.306 773.986 144.516 774.575L142.963 772.709C135.899 762.836 129.37 752.244 123.362 741.695C129.695 730.473 136.746 719.82 142.642 708.313Z"/>
	<path fill="#BD5553" transform="scale(0.195312 0.195312)" d="M953.44 466.541C954.793 468.204 954.986 497.378 955.09 501.92C944.299 510.067 931.198 515.166 919.781 522.433L919.205 522.462C919.121 521.548 919.319 520.72 919.46 519.813L918.453 519.758C919.978 517.973 918.842 495.411 918.624 491.43C930.748 483.71 941.803 474.93 953.44 466.541Z"/>
	<path fill="#BD5553" transform="scale(0.195312 0.195312)" d="M780.119 815.329C784.822 816.078 789.899 818.075 794.615 819.194C802.98 821.179 811.482 822.581 819.954 824.024C811.785 832.819 801.777 841.118 792.041 848.149C777.896 845.756 764.524 841.766 751.443 835.895C761.867 830.071 770.899 822.844 780.119 815.329Z"/>
	<path fill="#BD5553" transform="scale(0.195312 0.195312)" d="M176.306 759.793C179.801 762.806 182.809 767.608 185.687 771.243C189.534 776.101 193.533 780.694 197.816 785.172C195.374 793.887 193.375 802.778 191.303 811.588C190.342 815.676 189.624 820.011 188.255 823.978L186.055 821.928C177.852 813.836 168.875 805.621 161.818 796.518C167.592 784.841 171.765 772.01 176.306 759.793Z"/>
	<path fill="#BD5553" transform="scale(0.195312 0.195312)" d="M606.027 904.103C608.773 905.726 611.596 909.579 614.036 911.811Q617.014 914.549 620.229 917.005Q623.445 919.46 626.87 921.612Q630.296 923.764 633.904 925.594Q637.511 927.425 641.271 928.919C629.502 932.052 617.796 935.499 606.058 938.754C605.252 938.97 604.303 939.282 603.467 939.291C597.302 939.357 576.091 916.868 571.736 911.658Q589.161 909.15 606.027 904.103Z"/>
	<path fill="#BD5553" transform="scale(0.195312 0.195312)" d="M928.163 658.091L928.63 658.167L928.846 658.899C924.976 669.653 921.369 681.719 915.682 691.638C902.878 694.829 889.067 695.672 876.003 697.731L875.227 697.149C879.424 686.109 885.805 675.746 890.333 664.735C903.079 663.189 915.709 661.259 928.163 658.091Z"/>
	<path fill="#BD5553" transform="scale(0.195312 0.195312)" d="M350.453 79.5157C351.191 79.4529 351.716 79.4553 352.447 79.7113C355.377 80.7385 359.027 83.7706 361.787 85.461L388.873 101.946C377.154 105.944 365.253 109.678 353.456 113.465C352.583 113.5 351.951 113.415 351.151 113.04C338.973 107.324 329.144 98.5821 315.8 94.1811C327.097 88.8882 338.611 83.465 350.453 79.5157Z"/>
	<path fill="#BD5553" transform="scale(0.195312 0.195312)" d="M288.949 108.423C293.274 108.584 321.65 121.466 328.768 124.103Q311.815 132.555 295.207 141.665C294.297 142.152 293.414 142.493 292.438 142.826C281.287 136.409 268.683 132.092 256.896 126.891C267.3 120.394 278.009 113.965 288.949 108.423Z"/>
	<path fill="#BD5553" transform="scale(0.195312 0.195312)" d="M894.984 277.246C898.577 280.575 909.543 306.13 912.566 312.376C909.333 315.958 906.956 320.517 904.38 324.588C900.212 331.175 895.876 337.587 890.75 343.477L888.626 345.932C884.74 335.711 879.979 325.805 875.404 315.879C883.006 306.056 891.137 289.045 894.984 277.246Z"/>
	<path fill="#BD5553" transform="scale(0.195312 0.195312)" d="M953.939 532.015L954.171 532.219C955.631 536.136 951.522 564.321 950.293 570.194Q932.491 577.808 914.495 584.952C913.709 583.297 917.561 555.119 917.936 551.165C929.093 546.769 943.823 538.58 953.939 532.015Z"/>
	<path fill="#BD5553" transform="scale(0.195312 0.195312)" d="M826.602 769.593C835.827 772.34 854.747 771.662 865.238 772.491C862.442 776.881 843.863 801.391 840.378 802.293C827.197 801.254 813.375 799.77 800.432 797.105C809.273 788.131 817.475 778.204 826.602 769.593Z"/>
	<path fill="#BD5553" transform="scale(0.195312 0.195312)" d="M216.232 803.278C225.126 811.121 233.561 819.094 242.831 826.551C241.049 835.939 239.845 845.762 239.826 855.316C239.818 858.862 242.002 864.779 240.943 867.799L239.717 867.164Q223.777 855.941 209.237 842.955C210.064 830.708 213.981 815.659 216.232 803.278Z"/>
	<path fill="#BD5553" transform="scale(0.195312 0.195312)" d="M416.218 61.124C416.778 61.043 417.836 60.9129 418.384 61.1408C420.545 62.0399 423.531 65.242 425.393 66.8007C433.807 73.8437 442.87 82.7691 452.098 88.5285C440.214 90.3769 428.289 92.0804 416.562 94.7812C416.247 94.8366 415.932 94.8951 415.617 94.9472C414.819 95.0789 413.805 95.1855 413.054 94.8109C410.188 93.383 401.718 85.473 398.56 82.9756C392.726 78.363 386.61 74.0976 380.552 69.788C392.161 66.0875 404.286 63.5393 416.218 61.124Z"/>
	<path fill="#BD5553" transform="scale(0.195312 0.195312)" d="M516.86 51.6252C529.489 51.3529 542.269 52.4189 554.853 53.3766C557.479 58.8431 561.171 63.9928 564.235 69.2407C568.118 75.8914 571.562 82.8705 575.212 89.6564C563.127 88.0034 550.861 86.5304 538.678 85.9443C531.809 74.2306 524.368 62.9332 516.86 51.6252Z"/>
	<path fill="#BD5553" transform="scale(0.195312 0.195312)" d="M263.008 842.018C272.72 848.828 282.89 854.636 292.905 860.952C292.412 872.728 293.259 889.86 297.03 900.872C297.088 901.04 297.15 901.207 297.21 901.375L296.764 902.145C284.639 896.143 272.55 889.663 261.617 881.654C261.635 868.531 261.586 855.066 263.008 842.018Z"/>
	<path fill="#BD5553" transform="scale(0.195312 0.195312)" d="M488.016 51.3969C493.406 60.072 507.149 77.9336 514.409 84.6197L514.083 85.3923C501.812 85.4295 489.627 85.9989 477.375 86.5913C469.269 74.8117 458.092 64.7403 447.565 55.1747C461.066 54.2831 474.478 52.0268 488.016 51.3969Z"/>
	<path fill="#BD5553" transform="scale(0.195312 0.195312)" d="M727.873 852.383C739.6 860.562 753.595 863.754 767.348 866.736Q750.535 877.983 732.676 887.482C727.765 887.834 698.825 874.852 693.368 871.523C698.643 868.179 704.595 865.58 710.143 862.686C716.218 859.516 722.066 856.014 727.873 852.383Z"/>
	<path fill="#BD5553" transform="scale(0.195312 0.195312)" d="M539.118 915.707C540.633 915.487 542.311 915.554 543.849 915.505C552.9 927.71 562.61 937.527 575.502 945.733C564.505 946.787 553.644 948.844 542.594 949.597C540.052 949.92 537.532 950.369 535.006 950.8C524.967 940.265 514.935 929.96 507.215 917.529C517.858 917.567 528.519 916.592 539.118 915.707Z"/>
	<path fill="#BD5553" transform="scale(0.195312 0.195312)" d="M666.24 883.404C667.132 883.539 666.856 883.395 667.556 883.862C679.05 891.523 690.81 897.614 703.307 903.451C692.213 909.392 680.141 914.175 668.629 919.279C668.457 919.345 668.294 919.442 668.114 919.477C664.496 920.168 635.854 900.808 631.635 897.056C643.322 892.791 654.99 888.755 666.24 883.404Z"/>
	<path fill="#BD5553" transform="scale(0.195312 0.195312)" d="M942.369 401.443C945.354 405.582 948.775 431.092 949.701 437.565C939.82 447.037 928.053 455.043 917.321 463.553L916.906 464.05C916.181 463.411 912.211 433.258 911.579 429.493C922.718 421.896 933.06 411.136 942.369 401.443Z"/>
	<path fill="#BD5553" transform="scale(0.195312 0.195312)" d="M96.8875 470.963L97.2092 471.262C98.0494 474.607 96.0627 497.662 95.9585 503.407C84.377 512.009 70.3704 520.642 58.2366 528.692C56.6421 516.946 57.5012 504.138 57.8977 492.321C71.2615 486.645 84.9882 479.304 96.8875 470.963Z"/>
	<path fill="#BD5553" transform="scale(0.195312 0.195312)" d="M136.811 245.79C151.106 247.535 165.185 250.35 179.642 250.539C175.14 256.078 163.489 274.71 158.894 277.412C151.829 277.614 144.741 278.474 137.677 278.843C130.556 279.214 123.361 279.042 116.231 278.999C121.953 267.525 129.729 256.479 136.811 245.79Z"/>
	<path fill="#BD5553" transform="scale(0.195312 0.195312)" d="M104.342 590.449C106.222 593.531 107.898 605.629 108.971 609.829C110.019 613.93 111.309 617.931 112.677 621.933C106.907 628.286 101.762 635.547 96.2435 642.157C92.2842 646.9 87.5923 651.272 84.0346 656.304L83.6431 656.865L82.9798 656.583C79.1086 645.088 75.4637 633.777 72.6904 621.966C83.5803 611.779 93.3403 600.475 104.342 590.449Z"/>
	<path fill="#BD5553" transform="scale(0.195312 0.195312)" d="M315.887 872.724C327.326 877.732 337.989 884.031 349.831 888.29C351.4 902.613 356.978 917.89 364.256 930.261C352.817 927.615 334.374 920.207 323.834 914.781C321.521 900.7 317.025 887.013 315.887 872.724Z"/>
	<path fill="#BD5553" transform="scale(0.195312 0.195312)" d="M376.389 897.668C388.303 900.553 399.813 905.11 411.825 907.863C418.652 924.027 423.233 932.15 434.256 945.972C421.157 944.424 402.13 941.795 390.034 937.149C383.907 925.977 379.829 910.042 376.389 897.668Z"/>
	<path fill="#BD5553" transform="scale(0.195312 0.195312)" d="M440.354 913.844L479.113 918.326C485.103 930.426 497.505 942.344 507.267 951.514C492.155 951.685 477.243 950.914 462.157 950.064C458.877 944.92 455.163 940.045 451.91 934.866C447.652 928.086 444.013 920.958 440.354 913.844Z"/>
	<path fill="#BD5553" transform="scale(0.195312 0.195312)" d="M96.2881 528.168C97.064 532.07 97.1767 536.305 97.5405 540.274Q98.6462 552.238 99.6198 564.214C92.289 571.25 84.8243 578.029 77.1702 584.711C73.8835 587.581 70.5349 591.011 66.7937 593.259L66.3857 592.31C63.8657 580.247 62.2038 568.123 60.5313 555.924Q78.9723 542.771 96.2881 528.168Z"/>
	<path fill="#BD5553" transform="scale(0.195312 0.195312)" d="M232.507 144.396C236.795 144.977 241.872 147.58 245.989 149.133Q258.62 153.966 271.355 158.518C263.63 164.753 255.312 170.661 247.347 176.608C244.349 178.846 242.333 180.89 238.387 180.309C224.834 178.776 211.53 175.802 198.06 173.759C208.681 163.49 220.535 153.064 232.507 144.396Z"/>
	<path fill="#810402" transform="scale(0.195312 0.195312)" d="M721.403 921.03C722.497 920.939 723.313 921.01 724.26 921.643C725.361 922.378 725.92 923.221 726.125 924.512C727.216 931.393 720.82 942.404 716.994 947.824C707.343 961.496 692.605 971.855 676.033 974.661C675.254 974.423 674.484 974.191 673.751 973.83C672.368 973.148 671.49 972.286 671.092 970.736C670.169 967.147 672.708 961.054 674.394 957.796C683.222 940.739 703.44 926.721 721.403 921.03Z"/>
	<path fill="#F8E6A6" transform="scale(0.195312 0.195312)" d="M721.585 924.02L722.669 924.558C722.918 925.059 722.959 925.069 723.072 925.715C724.219 932.227 715.646 945.65 711.544 950.495C703.052 960.524 688.98 970.665 675.536 971.778C674.736 971.13 674.196 970.573 674.015 969.508C673.397 965.87 676.23 960.298 678.033 957.145C686.296 942.701 705.696 928.458 721.585 924.02Z"/>
	<path fill="#BD5553" transform="scale(0.195312 0.195312)" d="M104.641 410.989L105.165 411.105C105.921 412.536 100.519 440.032 99.6896 443.99C87.2652 452.051 73.0706 458.126 59.7807 464.695L59.1764 464.551C60.3508 450.863 61.2567 436.935 64.0732 423.473C77.8136 420.6 91.3968 415.611 104.641 410.989Z"/>
	<path fill="#810402" transform="scale(0.195312 0.195312)" d="M465.334 169.613C467.528 169.835 469.752 170.305 471.472 171.772C474.055 173.974 474.871 177.455 475.131 180.704C476.583 198.856 452.433 218.649 441.549 231.836L437.321 237.063Q437.003 236.23 436.739 235.379C432.192 220.671 434.714 203.623 441.89 190.173C447.313 180.01 454.172 173.039 465.334 169.613Z"/>
	<path fill="#E67B78" transform="scale(0.195312 0.195312)" d="M462.189 172.511C464.579 172.389 467.079 172.313 469.076 173.854C471.318 175.584 472.28 179.333 472.455 182.015C473.452 197.309 452.318 215.593 442.562 226.199L438.014 231.129C436.304 220.644 436.976 210.711 440.461 200.632C444.468 189.04 450.826 178.007 462.189 172.511Z"/>
	<path fill="#BD5553" transform="scale(0.195312 0.195312)" d="M123.658 349.198L123.901 349.238C124.015 349.459 124.208 349.655 124.242 349.902C124.385 350.912 121.127 358.266 120.518 359.874C117.537 367.747 115.392 376.07 113.084 384.163C99.6398 388.512 85.966 391.351 72.1887 394.355L71.5584 394.269C70.8494 391.052 80.8076 359.756 82.8645 354.36Q103.34 352.405 123.658 349.198Z"/>
	<path fill="#810402" transform="scale(0.195312 0.195312)" d="M233.526 285.768C244.146 282.582 261.759 278.986 272.191 284.497C274.21 285.564 276.008 287.208 276.663 289.456C277.3 291.646 276.782 293.909 275.623 295.827C271.034 303.424 258.234 307.516 250.067 309.211C228.653 313.656 206.051 306.972 184.941 312.278C192.693 303.667 215.121 291.768 226.385 288.283C228.685 287.214 231.11 286.523 233.526 285.768Z"/>
	<path fill="#F8E6A6" transform="scale(0.195312 0.195312)" d="M242.553 286.374C250.426 285.21 265.431 282.815 272.165 287.824C273.129 288.541 273.981 289.54 274.103 290.78C274.3 292.778 273.072 294.612 271.745 295.982C260.501 307.591 239.983 307.946 224.96 307.789C214.573 307.681 204.369 307.369 193.996 308.121C203.818 302.244 213.596 296.946 224.031 292.232C230.204 290.22 236.316 288.189 242.553 286.374Z"/>
	<path fill="#810402" transform="scale(0.195312 0.195312)" d="M585.34 808.674C586.207 808.54 586.568 808.55 587.4 808.689C587.626 809.098 587.755 809.259 587.811 809.782C588.547 816.721 576.029 836.369 571.374 841.715C554.336 861.284 531.595 875.426 505.381 877.126L503.167 876.97L502.787 876.501C504.188 873.62 506.424 871.364 508.178 868.702C512.416 862.266 516.265 855.607 520.817 849.372C537.274 826.826 557.625 812.907 585.34 808.674Z"/>
	<path fill="#F8E6A6" transform="scale(0.195312 0.195312)" d="M581.478 811.625C582.424 811.504 583.025 811.526 583.948 811.77L584.395 812.907C583.647 819.238 576.959 829.636 573.198 834.872Q572.522 835.824 571.822 836.76Q571.123 837.695 570.401 838.614Q569.68 839.532 568.936 840.433Q568.192 841.333 567.426 842.215Q566.661 843.097 565.874 843.961Q565.087 844.824 564.28 845.668Q563.472 846.512 562.644 847.336Q561.816 848.16 560.969 848.964Q560.121 849.767 559.254 850.55Q558.387 851.333 557.502 852.095Q556.616 852.856 555.712 853.596Q554.808 854.336 553.887 855.053Q552.965 855.771 552.026 856.466Q551.088 857.161 550.132 857.833Q549.177 858.505 548.205 859.153Q547.234 859.802 546.247 860.427Q545.26 861.051 544.258 861.652Q543.256 862.252 542.24 862.828Q541.224 863.404 540.194 863.956Q539.164 864.507 538.121 865.033Q537.078 865.559 536.023 866.059Q534.968 866.559 533.9 867.034Q532.833 867.509 531.755 867.957Q530.676 868.406 529.587 868.828Q528.498 869.25 527.399 869.646Q526.3 870.042 525.192 870.41Q524.084 870.779 522.967 871.121Q521.85 871.463 520.725 871.777Q519.6 872.092 518.468 872.379Q517.335 872.666 516.197 872.925Q515.058 873.185 513.913 873.416Q512.768 873.648 511.618 873.852C510.549 873.994 509.742 874.179 508.711 873.789L509.487 873.891L508.945 872.845C511.466 868.478 514.171 864.193 516.879 859.94C533.031 834.568 551.481 818.234 581.478 811.625Z"/>
	<path fill="#810402" transform="scale(0.195312 0.195312)" d="M635.077 153.55C637.338 153.433 639.236 153.599 640.966 155.245C643.379 157.539 643.626 161.407 643.593 164.522C643.287 193.148 607.373 217.457 588.836 235.781L585.281 238.896Q584.866 237.402 584.524 235.89Q584.182 234.379 583.914 232.852Q583.645 231.325 583.451 229.787Q583.257 228.249 583.137 226.704Q583.017 225.158 582.973 223.609Q582.928 222.059 582.958 220.51Q582.989 218.96 583.094 217.413Q583.199 215.867 583.379 214.327Q583.559 212.787 583.813 211.258Q584.068 209.729 584.395 208.214Q584.723 206.699 585.124 205.202Q585.525 203.704 585.998 202.228Q586.471 200.752 587.015 199.3Q587.558 197.848 588.172 196.425Q588.785 195.001 589.466 193.609Q590.148 192.217 590.896 190.859C599.983 174.129 616.669 159.046 635.077 153.55Z"/>
	<path fill="#F8E6A6" transform="scale(0.195312 0.195312)" d="M634.651 157.025C636.216 156.961 637.955 156.93 639.095 158.208C640.645 159.946 640.676 162.4 640.49 164.589C638.101 192.791 609.769 213.065 590.045 230.082C589.033 230.951 588.298 231.541 587.046 232.056L586.463 231.367C583.206 218.686 588.495 201.743 594.606 190.701C602.923 175.671 617.913 161.797 634.651 157.025Z"/>
	<path fill="#810402" transform="scale(0.195312 0.195312)" d="M763.443 671.851C764.263 672.464 764.747 672.71 765.103 673.713C766.003 676.25 765.759 679.962 765.831 682.671C766.172 695.583 765.541 707.203 759.849 719.023C749.171 741.199 730.14 753.175 707.631 760.971L705.996 760.941L705.318 760.156C705.307 759.709 705.276 759.473 705.348 759.05C705.732 756.818 707.886 753.791 708.822 751.549C710.216 748.212 711.405 744.736 712.478 741.281C714.633 734.347 716.268 727.227 718.656 720.372C727.144 696.004 742.539 685.113 763.443 671.851Z"/>
	<path fill="#F8E6A6" transform="scale(0.195312 0.195312)" d="M761.468 677.452C761.836 677.863 761.922 677.9 762.153 678.495C762.817 680.202 762.496 683.48 762.502 685.354C762.538 696.037 761.772 705.856 757.44 715.755C748.723 735.672 731.434 748.111 711.712 755.856L711.293 755.822L710.99 755.299C726.923 717 719.895 701.542 761.468 677.452Z"/>
	<path fill="#810402" transform="scale(0.195312 0.195312)" d="M102.473 705.443C98.1121 706.933 90.9118 707.943 86.2761 707.343C85.036 707.182 84.3867 707.039 83.5968 706.027C84.3962 700.938 109.318 664.246 114.829 657.613C117.739 654.111 121.164 650.656 124.92 648.057C132.228 643 159.929 633.91 168.135 636.165C169.398 636.512 169.826 636.936 170.486 638.019C170.105 642.575 167.26 648.416 165.531 652.753C156.023 676.606 141.53 691.026 118.191 701.167C112.999 702.303 107.46 703.593 102.473 705.443Z"/>
	<path fill="#F8E6A6" transform="scale(0.195312 0.195312)" d="M164.149 638.698C165.089 638.588 166.024 638.616 166.969 638.616C166.992 638.748 167.031 638.878 167.037 639.011C167.198 642.568 158.529 660.81 156.367 664.656C154.067 668.749 150.987 672.936 148.017 676.568C133.852 693.893 111.974 702.122 90.1259 704.231C89.2318 704.298 88.6698 704.208 87.8166 703.936C88.9146 699.654 112.124 666.086 116.611 660.498C118.704 657.892 120.9 654.963 123.477 652.822C133.908 644.156 151.029 640.141 164.149 638.698Z"/>
	<path fill="#810402" transform="scale(0.195312 0.195312)" d="M859.666 228.095C862.749 227.996 865.625 228.529 868.654 228.565C894.027 231.858 917.706 244.537 936.873 261.197C929.022 260.578 921.261 259.139 913.414 258.579C901.217 257.709 889.141 258.707 877.071 260.414C866.276 261.381 854.992 263.363 844.425 265.799C834.717 268.127 820.428 271.499 810.811 268.194C808.403 267.366 806.143 265.911 805.084 263.508C804.116 261.312 804.399 258.899 805.22 256.71C809.235 245.999 820.488 239.986 830.25 235.575C831.753 234.902 833.187 234.046 834.628 233.248C843.037 230.395 850.784 228.689 859.666 228.095Z"/>
	<path fill="#F8E6A6" transform="scale(0.195312 0.195312)" d="M857.117 231.198C881.583 229.473 905.555 242.733 925.203 256.019C917.584 255.85 909.978 255.233 902.356 255.301C891.269 255.4 880.35 256.729 869.385 258.265C858.695 259.975 817.192 269.752 809.658 264.552C808.6 263.822 808.121 262.69 808.004 261.455C807.645 257.682 809.615 254.027 811.99 251.25C822.161 239.354 841.96 232.443 857.117 231.198Z"/>
	<path fill="#F8E6A6" transform="scale(0.195312 0.195312)" d="M242.344 233.513C221.474 231.418 198.353 228.311 180.057 217.235C177.316 215.575 173.771 213.325 171.793 210.784C171.118 209.917 171.087 209.646 171.104 208.603C173.765 206.383 177.791 205.346 181.037 204.227C197.674 198.492 214.834 195.336 232.486 196.915C262.303 199.582 298.49 214.234 318.057 237.645C319.235 239.054 320.421 240.489 321.488 241.983C321.086 243.521 321.147 243.734 319.922 244.705C310.719 243.265 301.686 241.219 292.419 240.099C277.081 238.245 261.555 237.759 246.137 236.882L246.65 236.091C246.024 235.336 246.247 235.395 245.53 235.087C244.611 234.693 243.826 234.442 242.951 233.909C242.745 233.784 242.546 233.645 242.344 233.513Z"/>
	<path fill="#810402" transform="scale(0.195312 0.195312)" d="M242.344 233.513C255.995 234.53 269.722 234.649 283.35 235.83C296.246 236.948 308.857 239.202 321.488 241.983C321.086 243.521 321.147 243.734 319.922 244.705C310.719 243.265 301.686 241.219 292.419 240.099C277.081 238.245 261.555 237.759 246.137 236.882L246.65 236.091C246.024 235.336 246.247 235.395 245.53 235.087C244.611 234.693 243.826 234.442 242.951 233.909C242.745 233.784 242.546 233.645 242.344 233.513Z"/>
	<path transform="scale(0.195312 0.195312)" d="M506.34 279.701C514.472 278.999 523.216 279.278 531.373 279.811C592.31 283.795 645.648 311.985 685.732 357.62C694.965 355.637 703.936 352.54 713.154 350.466C749.502 342.289 805.83 333.142 841.526 346.397C854.023 351.038 864.794 359.661 870.388 372.005C877.927 388.644 874.942 408.585 868.678 425.103C856.748 456.566 834.507 485.215 812.445 510.265C743.477 588.579 656.293 650.313 563.768 697.803C549.568 705.091 535.375 712.48 520.795 718.985Q493.654 730.864 465.866 741.139Q438.078 751.414 409.738 760.05C374.907 770.694 345.045 779.348 308.255 781.694C298.062 782.344 287.827 782.75 277.627 782.021C257.485 780.582 236.447 776.06 222.675 759.979C215.718 751.855 212.903 742.325 213.849 731.695C218.117 683.73 280.223 613.454 315.94 583.98C308.579 558.917 301.65 533.592 299.676 507.428C295.309 449.541 307.475 402.335 345.678 357.946C378.668 319.614 426.49 292.98 475.973 283.317C486.024 281.355 496.14 280.466 506.34 279.701Z"/>
	<path fill="#F8E6A6" transform="scale(0.195312 0.195312)" d="M715.09 355.164L715.31 355.365C715.137 355.551 715.002 355.782 714.79 355.923C712.324 357.563 694.219 363.987 691.475 364.032C691.034 363.464 690.655 362.803 690.263 362.199C696.579 358.846 707.866 357.027 715.09 355.164Z"/>
	<path fill="#F8E6A6" transform="scale(0.195312 0.195312)" d="M317.303 589.421C318.357 590.636 320.02 593.527 320.322 595.048C320.52 596.047 320.294 597.067 319.553 597.794C317.001 600.298 311.623 599.654 308.375 599.636C307.366 599.65 307.066 599.673 306.134 599.212C307.183 595.878 314.459 591.564 317.303 589.421Z"/>
	<path fill="#F8E6A6" transform="scale(0.195312 0.195312)" d="M458.287 722.045C459.873 723.491 460.426 734.593 460.768 737.251C456.598 739 452.335 740.552 448.111 742.169L447.244 741.413C445.93 736.533 446.01 731.569 445.984 726.552C450.127 725.209 454.204 723.562 458.287 722.045Z"/>
	<path fill="#F8E6A6" transform="scale(0.195312 0.195312)" d="M682.736 601.606C686.166 604.588 689.361 609.022 692.417 612.455Q685.261 617.893 677.841 622.964C675.289 621.286 671.131 614.388 668.913 611.623L682.736 601.606Z"/>
	<path fill="#F8E6A6" transform="scale(0.195312 0.195312)" d="M359.218 754.558L359.78 754.696C360.065 757.124 355.537 766.892 354.584 769.804Q344.697 772.025 334.719 773.791L334.466 773.797L334.207 773.353C337.355 768.951 339.358 763.975 341.403 758.996C347.438 757.828 353.297 756.196 359.218 754.558Z"/>
	<path fill="#F8E6A6" transform="scale(0.195312 0.195312)" d="M702.989 586.49C706.945 589.411 710.454 592.689 713.94 596.15L697.975 609.098C697.517 609.386 697.097 609.366 696.568 609.427C693.112 606.638 690.32 601.793 687.378 598.331C692.718 594.554 697.846 590.528 702.989 586.49Z"/>
	<path fill="#F8E6A6" transform="scale(0.195312 0.195312)" d="M839.906 436.004C846.163 435.955 851.377 436.703 857.145 439.187C853.709 447.384 848.051 455.214 843.342 462.766C842.848 463.423 842.634 463.597 841.965 464.016C837.722 460.062 833.597 458.459 827.958 457.338C832.487 450.411 836.381 443.494 839.906 436.004Z"/>
	<path fill="#F8E6A6" transform="scale(0.195312 0.195312)" d="M824.24 462.418C829.965 462.915 834.669 464.146 839.713 466.89C835.014 475.862 821.778 492.337 814.667 500.204C814.212 500.462 814.549 500.305 813.567 500.396C809.148 497.453 805.076 495.094 799.795 494.193C809.123 483.694 816.83 474.468 824.24 462.418Z"/>
	<path fill="#F8E6A6" transform="scale(0.195312 0.195312)" d="M320.801 661.324C323.059 662.759 325.298 664.435 327.885 665.189C334.097 663.706 341.184 669.016 346.488 671.894C344.487 683.145 337.733 694.784 332.32 704.797Q328.509 712.352 324.347 719.719C323.924 711.196 324.176 702.631 323.795 694.1C323.307 683.163 321.994 672.202 320.801 661.324Z"/>
	<path fill="#F8E6A6" transform="scale(0.195312 0.195312)" d="M796.606 497.384C801.482 499.479 806.341 501.57 811.115 503.89C800.706 517.779 781.715 536.683 768.885 549.081L768.48 549.342C765.602 543.884 760.94 542.374 755.634 539.916C766.36 530.731 776.167 520.472 785.648 510.028C789.374 505.922 793.346 501.866 796.606 497.384Z"/>
	<path fill="#F8E6A6" transform="scale(0.195312 0.195312)" d="M752.046 543.312C757.401 544.634 762.012 548.171 766.362 551.37C751.117 565.361 735.833 578.832 719.755 591.876L716.959 593.965C714.256 589.828 711.196 586.479 707.629 583.07C722.215 569.591 737.47 556.831 752.046 543.312Z"/>
	<path fill="#F8E6A6" transform="scale(0.195312 0.195312)" d="M335.976 760.225L336.071 760.333C336.191 763.007 331.604 770.96 330.573 774.299C307.954 778.49 279.259 778.103 256.615 774.165C256.248 774.031 255.866 773.695 255.543 773.471C255.446 770.275 259.64 764.769 261.351 761.997C285.341 767.204 311.95 764.042 335.976 760.225Z"/>
	<path fill="#F8E6A6" transform="scale(0.195312 0.195312)" d="M275.849 630.491C275.413 633.875 270.925 635.508 270.533 638.681C271.164 638.684 271.806 638.709 272.437 638.677C268.755 641.398 265.927 645.556 263.164 649.183C250.027 666.424 238.237 686.398 231.375 706.991C227.649 718.175 224.578 731.511 230.381 742.582C235.73 752.788 246.407 757.384 256.799 760.78C254.948 764.719 252.837 768.568 250.847 772.44C242.76 769.962 235.544 766.289 229.405 760.371C222.701 753.907 218.355 746.073 218.251 736.573C217.912 705.812 254.731 651.851 275.849 630.491Z"/>
	<path fill="#F8E6A6" transform="scale(0.195312 0.195312)" d="M440.474 728.576C441.484 732.88 441.315 738.999 442.431 744.172C415.961 753.354 389.026 762.062 361.719 768.384L360.313 768.199C359.505 765.287 364.736 755.311 365.933 752.23C391.094 745.579 415.88 737.058 440.474 728.576Z"/>
	<path fill="#F8E6A6" transform="scale(0.195312 0.195312)" d="M785.04 344.216C804.825 343.361 827.808 344.214 845.827 353.039C856.462 358.248 863.905 366.559 867.67 377.809C873.858 396.301 868.331 416.719 859.974 433.619L859.621 434.148C857.809 434.505 854.109 432.285 851.917 431.869C848.661 431.251 845.258 431.358 841.956 431.339C844.737 423.769 847.574 416.208 849.311 408.314C852.306 394.707 851.665 380.912 843.948 368.94C834.507 354.294 816.012 348.928 799.693 346.261C795.005 345.495 790.133 345.387 785.515 344.33C785.356 344.294 785.199 344.254 785.04 344.216Z"/>
	<path fill="#F8E6A6" transform="scale(0.195312 0.195312)" d="M663.825 614.899C666.992 616.841 671.258 623.233 673.782 626.262C663.578 633.678 652.919 640.47 642.313 647.289Q610.679 667.936 577.157 685.35C576.231 685.762 576.371 685.789 575.239 685.669C572.501 681.833 570.87 676.612 568.431 672.425C575.408 668.287 582.855 664.913 589.879 660.82Q627.599 639.062 663.825 614.899Z"/>
	<path fill="#F8E6A6" transform="scale(0.195312 0.195312)" d="M562.204 675.389L563.436 675.509C565.872 677.615 568.81 685.25 570.728 688.512C563.456 692.904 555.56 696.763 547.98 700.602Q510.241 719.456 470.628 733.966L465.487 735.768C464.448 730.569 463.944 725.294 463.364 720.029Q500.301 705.698 536.044 688.607C544.862 684.379 553.384 679.597 562.204 675.389Z"/>
	<path fill="#F8E6A6" transform="scale(0.195312 0.195312)" d="M355.286 574.656C358.652 574.174 362.498 574.375 365.839 575.015C374.752 576.723 383.108 581.736 388.17 589.34C406.204 616.429 391.711 679.325 385.56 709.577C377.632 699.475 368.839 689.905 360.225 680.384C356.701 676.236 353.093 672.268 349.281 668.383Q350.848 667.861 352.369 667.215C363.422 662.591 374.466 650.659 378.85 639.589C383.016 629.068 382.135 616.769 377.625 606.505C373.883 597.993 367.255 591.272 358.498 587.948C346.796 583.506 336.392 587.619 325.695 592.476C325.985 592.069 326.275 591.661 326.577 591.262C334.355 581.008 342.547 576.521 355.286 574.656Z"/>
	<path fill="#F8E6A6" transform="scale(0.195312 0.195312)" d="M341.671 591.088C344.8 590.743 347.753 590.726 350.852 591.32Q351.64 591.474 352.42 591.668Q353.199 591.861 353.968 592.093Q354.737 592.325 355.493 592.596Q356.249 592.866 356.991 593.174Q357.733 593.482 358.458 593.826Q359.184 594.171 359.891 594.551Q360.598 594.932 361.286 595.347Q361.973 595.762 362.639 596.212Q363.304 596.661 363.947 597.143Q364.589 597.625 365.207 598.139Q365.824 598.652 366.415 599.196Q367.006 599.74 367.569 600.312Q368.132 600.885 368.666 601.485Q369.199 602.086 369.702 602.712Q370.205 603.338 370.676 603.988Q371.147 604.639 371.585 605.312Q372.063 606.047 372.504 606.805Q372.945 607.563 373.349 608.341Q373.753 609.12 374.118 609.917Q374.484 610.714 374.81 611.528Q375.137 612.342 375.423 613.17Q375.709 613.999 375.955 614.841Q376.201 615.683 376.405 616.535Q376.61 617.388 376.773 618.25Q376.936 619.111 377.056 619.98Q377.177 620.848 377.255 621.722Q377.334 622.595 377.37 623.471Q377.405 624.347 377.399 625.224Q377.392 626.101 377.342 626.976Q377.293 627.852 377.201 628.724Q377.109 629.596 376.975 630.463Q376.84 631.329 376.664 632.188C373.909 645.741 364.122 654.444 353.004 661.619C349.693 663.755 346.131 665.729 342.086 664.862C339.465 663.894 337.025 662.696 334.533 661.444C336.074 658.865 337.435 656.364 338.606 653.593C334.705 655.929 330.856 658.255 326.725 660.172C320.156 655.767 316.953 650.039 315.248 642.447C312.472 630.085 314.194 615.331 321.168 604.562C326.005 597.092 333.059 592.88 341.671 591.088Z"/>
	<path transform="scale(0.195312 0.195312)" d="M341.707 633.284C342.031 633.49 342.822 634.048 342.951 634.433C343.532 636.156 343.141 642.433 343.99 645.63C345.069 649.693 349.826 652.314 350.585 656.302C350.864 657.766 349.92 658.972 349.161 660.122C344.805 655.11 339.237 648.377 338.867 641.467C338.698 638.313 339.595 635.61 341.707 633.284Z"/>
	<path transform="scale(0.195312 0.195312)" d="M357.295 618.631C359.292 618.508 361.922 618.238 363.801 618.952C365.327 619.531 366.615 620.655 367.238 622.181C368.128 624.361 367.633 626.925 366.771 629.028C364.905 633.584 361.519 636.345 357.057 638.14C354.754 638.394 352.663 638.383 350.592 637.192C348.862 636.197 347.723 634.552 347.263 632.626C346.558 629.666 347.248 626.523 348.848 623.973C350.951 620.623 353.599 619.572 357.295 618.631Z"/>
	<path transform="scale(0.195312 0.195312)" d="M326.902 615.596C328.474 615.431 330.083 615.24 331.667 615.308C334.594 615.435 337.664 616.377 339.633 618.668C341.186 620.475 341.683 622.846 341.411 625.174C340.942 629.198 338.304 632.786 335.298 635.321C333.096 636.193 330.953 636.889 328.575 636.327C326.306 635.791 324.373 634.213 323.154 632.258C321.388 629.426 320.942 625.586 321.742 622.374C322.571 619.047 323.956 617.262 326.902 615.596Z"/>
	<path fill="#BD5553" transform="scale(0.195312 0.195312)" d="M695.241 375.753C695.365 375.845 695.496 375.929 695.614 376.03C700.304 380.03 710.73 390.02 711.296 396.175C711.727 400.863 708.404 406.758 706.349 410.822C695.386 432.499 680.45 451.052 665.23 469.812C679.333 461.616 698.247 435.643 706.714 421.032C710.352 414.753 713.296 408.223 716.187 401.583C721.438 408.326 727.807 414.211 732.236 421.57C731.069 427.585 728.842 433.371 726.1 438.836C698.348 494.153 621.316 552.305 569.156 584.246Q537.763 603.085 504.7 618.81C470.34 635.103 434.697 647.817 398.601 659.619C400.424 647.672 400.748 635.71 400.896 623.647C407.086 620.713 413.775 618.673 420.242 616.444Q432.552 612.309 444.626 607.53C469.18 598.531 554.837 558.204 569.316 538.195C564.021 540.362 559.032 544.121 554.128 547.076Q540.323 555.532 526.049 563.169C484.594 584.91 444.942 603.545 400.685 619.012C400.38 613.296 399.538 607.613 398.515 601.986C419.005 593.971 439.536 586.068 459.39 576.545C530.98 542.207 616.036 486.052 665.554 423.566C676.594 409.635 687.677 391.768 695.241 375.753Z"/>
	<path transform="scale(0.195312 0.195312)" d="M674.531 486.029C674.922 486.49 674.694 486.142 674.792 487.248C668.904 502.029 638.022 524.073 623.779 530.974L623.53 530.862C623.774 529.843 636.92 519.709 638.649 518.301Q657.391 503.056 674.531 486.029Z"/>
	<path transform="scale(0.195312 0.195312)" d="M579.451 561.938C579.591 562.97 579.515 563.641 578.927 564.544C575.324 570.076 563.626 576.462 557.775 580.181C516.259 606.567 463.989 633.194 416.381 645.321L416.306 644.775C422.948 640.2 436.47 636.179 444.316 633.021Q462.311 625.672 480.004 617.622C514.729 601.821 547.539 582.782 579.451 561.938Z"/>
	<path fill="#F8E6A6" transform="scale(0.195312 0.195312)" d="M763.847 347.177C785.19 345.937 816.617 348.861 833.125 363.566C840.923 370.512 845.535 381.218 846.078 391.576C846.786 405.083 842.129 419.024 837.247 431.435C826.838 431.62 773.48 441.807 766.936 447.832C766.798 447.959 766.686 448.111 766.562 448.25L766.63 449.2C768.1 449.851 769.645 449.491 771.165 449.178C777.262 447.92 783.197 445.945 789.26 444.518C804.23 440.996 819.708 438.033 835.026 436.568C831.761 443.579 827.86 450.693 823.422 457.033Q818.994 456.507 814.549 456.15Q810.104 455.793 805.649 455.604Q801.194 455.416 796.735 455.396Q792.276 455.377 787.819 455.527Q783.363 455.676 778.915 455.995Q774.467 456.314 770.035 456.801Q765.602 457.288 761.192 457.943Q756.781 458.598 752.398 459.42C748.569 460.167 743.71 460.566 740.49 462.956C740.072 463.266 740.037 463.332 739.634 463.728L739.752 464.078C747.581 464.69 758.168 462.4 766.218 461.676C783.678 460.104 802.722 459.601 820.112 461.9C816.465 467.108 812.85 472.433 808.659 477.224C792.685 473.049 747.123 473.762 731.956 480.848C739.245 481.438 746.753 480.573 754.049 480.208C770.821 479.369 788.923 478.634 805.432 482.139C802.239 486.017 798.967 489.853 795.901 493.832C792.791 493.076 789.69 492.257 786.522 491.787C788.806 493.48 791.086 494.747 793.615 496.021L765.655 525.593C761.919 523.939 758.149 522.256 754.153 521.338C746.905 519.674 719.976 516.829 713.858 519.509C713.035 519.87 713.325 519.675 712.829 520.508C713.525 521.537 713.671 521.632 714.969 521.928C718.49 522.731 722.996 522.509 726.653 522.731C738.575 523.453 750.789 524.554 761.872 529.388Q757.695 534.583 752.67 538.962C745.3 536.239 739.206 534.356 731.268 534.553C736.993 537.535 743.313 538.917 749.145 541.605Q737.548 553.136 724.897 563.501C718.104 569.031 710.964 574.306 704.463 580.175C699.318 576.211 693.869 571.484 687.504 569.736C686.353 569.952 686.292 569.878 685.564 570.775C685.959 571.685 698.485 581.188 700.476 583.068C695.056 587.011 689.842 591.219 684.601 595.393C679.215 590.545 672.284 583.285 664.813 582.338L664.752 582.863C670.024 587.834 675.691 592.713 680.505 598.12Q673.217 603.295 666.006 608.577C659.743 602.424 643.598 586.911 634.878 586.54C634.284 586.515 634.388 586.545 633.881 586.819L633.756 587.724C637.596 591.62 642.87 594.632 647.194 598.037C652.366 602.112 657.075 606.772 661.692 611.456Q629.91 633.126 596.687 652.514C586.843 658.29 576.837 664.482 566.606 669.513C564.626 665.557 562.514 661.667 560.542 657.711C558.084 652.78 556.704 647.71 552.724 643.688L551.877 643.565C550.335 648.462 556.042 658.946 558.287 663.251L562.537 671.414L551.455 677.077C548.375 672.578 545.181 668.077 542.392 663.392C539.709 658.886 537.404 650.799 533.349 647.63L532.663 647.71C531.472 650.675 532.749 654.786 533.932 657.592C537.187 665.31 543.369 672.385 549.314 678.156C530.689 688.209 510.626 696.83 491.141 705.085C481.997 708.959 472.817 713.286 463.474 716.597C463.495 708.535 464.331 700.362 465.595 692.393C466.089 689.278 467.052 686.152 467.312 683.018C467.42 681.708 467.396 680.553 466.968 679.297C466.033 679.523 466.399 679.273 465.816 680.257C460.139 689.828 458.741 707.826 458.922 718.738C454.68 720.411 450.453 722.031 446.121 723.464C447.159 712.329 449.407 701.731 452.444 690.986C453.12 688.593 455.271 683.916 454.229 681.635C453.562 681.634 453.107 681.462 452.57 681.939C447.758 686.216 441.739 717.982 440.359 725.087Q414.75 734.1 388.641 741.545C381.82 743.475 374.922 745.611 367.981 747.024C370.382 741.37 375.131 732.996 374.349 726.775L373.826 726.293C370.008 729.436 364.875 743.257 363.065 748.359Q353.899 750.849 344.629 752.916C347.514 747.593 355.753 735.088 355.141 729.436L354.511 728.821C350.711 730.155 341.699 749.293 339.651 753.683C339.593 753.806 339.543 753.932 339.489 754.056C315.355 758.544 288.912 762.539 264.552 757.772C272.838 751.383 287.929 739.312 292.911 730.413C280.319 737.219 271.096 748.42 259.495 756.455C249.987 753.754 240.132 749.043 234.991 740.133C230.676 732.655 231.112 724.198 233.438 716.192Q234.107 713.885 234.901 711.617C244.134 708.035 274.64 693.73 281.324 688.016C268.711 689.57 257.999 695.28 246.916 701.11C243.617 702.845 240.326 704.808 236.857 706.177C237.969 702.699 239.115 699.389 240.727 696.108C247.655 693.776 279.909 680.764 282.859 676.225C282.228 675.481 282.592 675.629 281.638 675.571C273.323 675.063 252.379 687.006 243.797 690.372C252.333 673.874 261.945 657.572 273.384 642.884C281.078 641.751 291.878 638.579 298.115 633.952L298.219 633.183C291.601 631.043 279.047 637.496 272.437 638.677C271.806 638.709 271.164 638.684 270.533 638.681C270.925 635.508 275.413 633.875 275.849 630.491C277.727 628.21 279.677 626.073 281.745 623.964C286.229 623.884 300.893 623.075 303.934 620.16C304.05 620.05 304.133 619.911 304.233 619.786C303.449 618.516 302.069 618.25 300.652 617.946C296.327 617.019 291.911 617.619 287.585 618.24C290.803 613.742 294.464 609.796 299.042 606.642C304.534 606.06 309.991 605.594 315.507 605.314C309.694 619.51 307.393 637.039 313.577 651.596C314.662 654.149 316.511 656.914 317.114 659.59C318.226 664.527 317.532 672.327 317.779 677.655C318.634 696.051 319.058 714.643 320.398 732.99C333.859 716.735 343.039 695.834 350.248 676.194C355.167 682.208 380.769 712.879 386.555 714.643C387.889 714.069 388.174 713.382 388.72 712.048C393.025 701.522 396.481 675.476 398.487 663.235C418.204 657.958 437.616 651.11 456.659 643.792Q467.801 639.612 478.786 635.035Q489.771 630.459 500.585 625.491Q511.399 620.523 522.028 615.17Q532.657 609.817 543.086 604.087Q553.516 598.356 563.734 592.255Q573.951 586.154 583.943 579.691Q593.935 573.227 603.689 566.409Q613.443 559.591 622.946 552.428Q640.442 539.615 656.772 525.344Q673.101 511.074 688.143 495.452C703.249 479.535 718.066 462.096 729.032 443.014C732.645 436.728 738.344 426.459 736.102 418.99C734.354 413.166 723.823 405.596 719.714 400.472C716.629 396.624 714.968 391.969 712.115 387.994C707.27 381.244 700.748 375.335 695.464 368.863C710.116 363.466 721.768 356.073 737.286 351.484C731.307 356.965 722.327 365.075 719.441 372.613L719.678 373.255C727.994 371.983 737.015 354.518 745.321 350.573C748.308 349.154 752.185 348.898 755.426 348.355C751.593 351.239 736.018 365.109 735.558 369.869C735.484 370.634 735.902 370.846 736.348 371.399C737.228 371.325 737.417 371.129 738.134 370.553C747.043 363.391 754.561 354.551 763.847 347.177Z"/>
	<path transform="scale(0.195312 0.195312)" d="M295.038 712.391C295.714 712.552 295.982 712.816 296.519 713.238L296.566 714.256C293.819 718.766 265.446 742.721 259.614 747.648L258.821 747.738C258.436 746.996 258.332 747.168 258.587 746.419C260.533 740.699 279.544 723.311 285.037 718.935C288.219 716.4 291.412 714.237 295.038 712.391Z"/>
	<path transform="scale(0.195312 0.195312)" d="M814.198 370.054C814.718 370.018 815.215 369.963 815.734 369.992C817.126 370.069 819.295 370.769 820.23 371.841C819.749 372.89 819.832 372.784 818.867 373.223C814.461 375.228 809.472 376.523 804.91 378.21Q791.49 383.089 778.647 389.329C777.219 390.031 776.102 390.541 774.511 390.713L773.88 390.095C773.977 389.505 773.941 389.465 774.282 388.855C777.492 383.108 807.004 371.796 814.198 370.054Z"/>
	<path transform="scale(0.195312 0.195312)" d="M808.278 353.546L809.905 353.721C811 354.569 811.394 354.629 811.711 355.956C809.272 359.72 799.431 361.07 795.122 362.549C792.804 363.345 790.568 364.464 788.381 365.558C780.51 369.494 773.604 374.392 766.755 379.857C765.857 380.326 765.322 380.428 764.31 380.446L763.925 379.46C763.978 378.729 764.115 378.224 764.495 377.59C770.185 368.107 797.834 356.345 808.278 353.546Z"/>
	<path fill="#F8E6A6" transform="scale(0.195312 0.195312)" d="M514.672 284.224C526.035 283.858 537.683 285.01 548.922 286.588Q551.565 286.982 554.197 287.44Q556.829 287.898 559.449 288.42Q562.069 288.942 564.676 289.528Q567.282 290.114 569.874 290.764Q572.465 291.414 575.04 292.127Q577.615 292.84 580.172 293.616Q582.728 294.391 585.265 295.229Q587.802 296.067 590.318 296.967Q592.833 297.867 595.326 298.828Q597.819 299.789 600.287 300.811Q602.756 301.833 605.199 302.915Q607.642 303.997 610.057 305.138Q612.473 306.279 614.86 307.479Q617.247 308.679 619.604 309.937Q621.961 311.195 624.286 312.511Q626.612 313.826 628.905 315.198Q631.197 316.57 633.456 317.997Q635.714 319.425 637.937 320.907Q640.159 322.39 642.345 323.926Q644.531 325.462 646.679 327.051Q648.826 328.641 650.935 330.282Q653.043 331.923 655.11 333.616Q657.177 335.308 659.203 337.05Q661.228 338.793 663.21 340.584Q665.192 342.376 667.13 344.215Q669.067 346.055 670.96 347.941Q672.852 349.827 674.697 351.759Q676.542 353.691 678.34 355.668Q680.138 357.644 681.886 359.664Q683.635 361.684 685.334 363.746Q687.032 365.808 688.68 367.911Q690.328 370.014 691.924 372.157C689.183 379.906 684.768 387.439 680.655 394.539C656.276 436.621 619.508 468.522 581.025 497.375C577.135 489.564 566.083 468.025 559.386 464.32C558.296 463.717 557.564 463.838 556.456 464.222L556.239 465.117C558.446 470.286 562.868 475.341 565.914 480.162C569.981 486.597 573.622 493.307 577.622 499.79C570.941 505.278 563.639 510.027 556.496 514.886C552.495 504.766 547.815 495.157 542.164 485.857C539.577 481.6 529.984 466.252 525.471 465.58C524.742 465.471 524.532 465.979 524.049 466.436C523.992 466.846 523.802 467.26 523.878 467.667C524.028 468.471 530.234 475.597 531.143 476.849C540.107 489.203 547.358 502.939 554 516.649Q536.762 528.7 518.768 539.589Q500.774 550.478 482.101 560.158C478.154 548.624 460.905 499.973 451.621 494.789L450.895 495.161C450.596 496.448 450.487 497.617 450.948 498.88C452.096 502.019 454.237 505.275 455.796 508.262Q459.276 514.966 462.354 521.863C468.485 534.932 473.49 548.409 479.167 561.665C476.042 563.532 472.718 565.088 469.461 566.712C461.407 544.793 452.577 524.132 440.948 503.84C437.783 498.317 434.626 491.762 429.466 487.872L428.949 488.145C429.136 489.935 429.735 491.488 430.486 493.12C436.344 505.852 443.653 518.008 449.821 530.619C455.846 542.936 460.662 555.772 467.344 567.767C444.578 579.911 421.346 589.067 397.483 598.685C394.296 590.704 390.34 583.948 383.492 578.557Q382.708 577.947 381.894 577.378Q381.081 576.808 380.24 576.28Q379.399 575.751 378.532 575.265Q377.666 574.78 376.776 574.338Q375.887 573.896 374.976 573.499Q374.066 573.102 373.137 572.751Q372.208 572.399 371.262 572.095Q370.317 571.791 369.357 571.534Q368.398 571.277 367.427 571.069Q366.456 570.86 365.475 570.7Q364.495 570.54 363.508 570.429Q362.521 570.319 361.529 570.257Q360.538 570.196 359.545 570.184Q358.552 570.172 357.559 570.21Q356.567 570.247 355.577 570.334Q354.588 570.422 353.604 570.558C340.721 572.254 331.761 578.401 323.986 588.494C321.164 583.086 319.299 576.991 317.427 571.194C309.9 547.887 304.585 523.155 303.648 498.629C301.492 442.235 315.484 396.769 354.372 355.02C389.238 317.59 438.328 292.93 488.898 286.006C497.461 284.833 506.042 284.515 514.672 284.224Z"/>
	<path transform="scale(0.195312 0.195312)" d="M364.775 458.808C365.46 459.198 365.699 459.487 366.189 460.084C366.356 462.799 365.36 464.683 364.182 467.08C363.211 466.621 362.78 466.384 362.219 465.455C361.873 462.676 363.254 460.995 364.775 458.808Z"/>
	<path transform="scale(0.195312 0.195312)" d="M323.084 461.711L324.582 462.926C324.842 463.699 325.083 464.413 325.078 465.239C325.061 467.968 323.544 470.322 321.749 472.241C321.076 471.741 320.782 471.337 320.3 470.664C319.888 467.235 321.578 464.663 323.084 461.711Z"/>
	<path transform="scale(0.195312 0.195312)" d="M566.057 394.33C568.119 394.5 569.278 395.189 570.824 396.557C576.925 401.954 580.444 410.349 581.032 418.312C580.777 418.09 580.518 417.873 580.269 417.646C577.71 415.317 566.192 397.287 566.057 394.33Z"/>
	<path transform="scale(0.195312 0.195312)" d="M364.814 494.329C364.884 494.382 364.963 494.425 365.024 494.488C365.625 495.11 365.886 495.323 365.956 496.203C366.284 500.335 356.532 520.216 353.563 523.693C353.45 523.581 353.327 523.48 353.225 523.358C352.351 522.316 352.312 521.972 352.41 520.607C352.98 512.603 358.853 499.688 364.814 494.329Z"/>
	<path transform="scale(0.195312 0.195312)" d="M404.117 535.728L405.088 536.285C405.536 537.793 402.801 565.266 402.094 568.782C401.843 570.027 401.818 570.112 400.798 570.755C399.841 569.316 399.359 567.65 399.029 565.966C397.186 556.55 398.864 543.853 404.117 535.728Z"/>
	<path transform="scale(0.195312 0.195312)" d="M595.605 316.832C598.021 317.041 600.048 317.983 602.211 319.004C610.456 322.893 625.897 332.713 629.111 341.678C625.022 340.252 620.46 335.63 616.852 333.034C610.415 328.401 602.763 324.589 596.687 319.616C595.573 318.704 595.772 318.222 595.605 316.832Z"/>
	<path transform="scale(0.195312 0.195312)" d="M391.173 534.856C391.684 535.456 391.855 535.854 391.913 536.678C392.182 540.488 391.421 544.83 391.245 548.685C390.989 554.285 391.06 559.894 391.092 565.498C391.103 567.348 391.636 572.462 390.703 573.707L389.411 572.834C386.139 564.552 385.502 553.235 386.767 544.48C387.285 540.891 388.158 537.116 391.173 534.856Z"/>
	<path transform="scale(0.195312 0.195312)" d="M558.113 369.567C562.12 369.171 565.339 371.031 568.647 373.071C577.544 378.559 591.295 389.942 593.789 400.659C589.606 399.213 584.832 392.753 581.67 389.584Q576.116 384.056 569.936 379.239C566.119 376.269 561.137 373.323 558.113 369.567Z"/>
	<path transform="scale(0.195312 0.195312)" d="M493.207 420.055C494.434 419.993 495.625 419.997 496.832 420.272C510.348 423.349 530.474 440.302 537.666 452.182C534.036 451.629 515.959 435.446 511.516 432.282C505.62 428.083 498.659 424.719 493.207 420.055Z"/>
	<path transform="scale(0.195312 0.195312)" d="M355.872 482.181L356.883 482.812C356.923 482.995 356.981 483.175 357.003 483.361C357.543 487.791 354.905 494.741 353.964 499.273C351.902 509.202 351.206 519.545 348.933 529.365C348.622 530.706 348.168 531.489 347.304 532.544C346.898 532.038 346.272 531.354 346.002 530.739C342.739 523.33 351.872 490.357 355.872 482.181Z"/>
	<path transform="scale(0.195312 0.195312)" d="M632.673 363.293C636.344 363.814 640.231 367.94 642.71 370.618C650.614 379.158 663.618 394.85 663.206 406.682L662.26 406.291C658.916 400.123 655.37 393.965 651.299 388.242C646.761 381.863 634.271 370.054 632.673 363.293Z"/>
	<path transform="scale(0.195312 0.195312)" d="M325.658 482.26C326.184 482.709 326.336 482.718 326.586 483.337C328.135 487.163 327.007 498.352 327.172 503.187C327.455 511.507 328.763 519.79 328.865 528.115C328.891 530.218 329.065 533.099 328.1 534.991L327.194 534.884C325.839 530.682 325.015 526.418 324.384 522.052C323.025 512.642 319.978 489.835 325.658 482.26Z"/>
	<path transform="scale(0.195312 0.195312)" d="M375.163 389.244C375.32 389.316 375.487 389.368 375.633 389.459C376.079 389.735 376.675 390.08 376.709 390.642C376.852 392.977 373.136 400.696 372.205 403.37C370.232 409.04 362.943 436.619 361.63 438.504C361.315 438.372 360.851 438.202 360.596 437.98C359.292 436.845 359.549 434.622 359.693 433.072C360.686 422.394 367.543 395.653 375.163 389.244Z"/>
	<path transform="scale(0.195312 0.195312)" d="M641.871 346.95C642.896 347.341 643.762 347.831 644.605 348.534C656.01 358.054 673.404 377.474 674.873 392.702C674.541 392.672 674.105 392.644 673.79 392.566C670.644 391.794 668.274 384.901 666.717 382.153C662.591 374.869 657.355 368.23 651.741 362.046C648.663 358.657 644.093 354.738 641.851 350.772C641.15 349.53 641.567 348.248 641.871 346.95Z"/>
	<path transform="scale(0.195312 0.195312)" d="M562.601 346.958C568.411 347.353 575.234 351.126 580.111 354.133C591.921 361.413 610.03 379.68 613.319 393.37C613.118 393.346 612.915 393.332 612.716 393.299C611.949 393.169 611.534 393.047 610.971 392.495C608.881 390.446 607.044 387.49 605.232 385.161C600.855 379.535 596.428 373.901 591.459 368.78Q588.63 365.871 585.525 363.26Q582.42 360.649 579.069 358.361C574.055 354.903 566.145 351.863 562.601 346.958Z"/>
	<path transform="scale(0.195312 0.195312)" d="M344.013 476.758C344.607 476.877 345.145 477.087 345.714 477.29L346.052 478.464C344.412 485.138 343.316 491.8 342.873 498.667C342.456 505.134 343.647 536.91 341.922 539.995L340.989 540.241C340.252 538.722 339.864 537.33 339.556 535.668C336.863 521.164 335.723 488.703 344.013 476.758Z"/>
	<path transform="scale(0.195312 0.195312)" d="M346.746 387.265C347.426 387.434 347 387.292 347.958 387.852C347.742 390.649 345.988 393.641 344.774 396.152C338.54 409.042 335.982 424.936 333.021 438.856C332.354 441.992 332.209 445.316 329.768 447.607C327.75 444.948 328.078 441.085 328.409 437.912C329.726 425.314 337.145 394.967 346.746 387.265Z"/>
	<path transform="scale(0.195312 0.195312)" d="M512.012 293.206C527.514 292.138 543.484 295.21 557.92 300.854C561.291 302.173 570.118 305.467 571.594 308.875L570.865 308.941L571.278 308.526L571.046 308.376L570.321 309.131C567.413 307.457 559.188 305.245 555.555 303.932C539.855 299.279 523.514 295.995 507.061 297.472C501.555 297.967 496.297 299.882 490.759 300.121C490.54 300.13 490.32 300.132 490.101 300.138C496.717 295.44 504.081 293.945 512.012 293.206Z"/>
	<path transform="scale(0.195312 0.195312)" d="M361.477 387.22C362.082 387.359 362.51 387.628 363.05 387.926C363.776 391.108 357.786 399.606 356.543 403.056C353.248 412.206 350.144 421.385 347.955 430.873C346.098 438.922 345.131 447.981 342.118 455.655L340.802 455.414C340.018 454.63 339.898 453.879 339.818 452.812C338.679 437.782 351.372 398.417 361.477 387.22Z"/>
	<path transform="scale(0.195312 0.195312)" d="M482.363 324.681C489.876 323.668 498.193 324.433 505.663 325.505C512.228 326.447 537.663 332.164 541.008 337.367C541.452 338.059 541.295 337.917 541.105 338.792C537.917 339.621 530.393 336.101 527.109 334.953C513.507 330.947 499.92 328.095 485.645 328.811C479.276 329.13 472.498 330.727 466.159 330.131C465.252 330.045 465.156 330.19 464.573 329.489C469.081 326.362 477.035 325.494 482.363 324.681Z"/>
	<path transform="scale(0.195312 0.195312)" d="M589.231 341.534C598.989 344.96 609.138 355.684 615.67 363.375C624.285 373.519 641.51 399.128 640.364 412.951C639.675 412.469 639.196 412.109 638.698 411.402C636.445 408.206 634.735 403.318 632.937 399.766C627.855 389.727 622.614 379.57 615.975 370.445C611.41 364.17 605.066 357.836 599.224 352.752C596.248 350.163 592.604 347.658 590.017 344.714C588.99 343.544 589.074 343.036 589.231 341.534Z"/>
	<path transform="scale(0.195312 0.195312)" d="M500.289 309.716C520.403 308.267 544.309 314.513 562.857 322.348C566.622 323.938 579.65 329.362 581.163 333.052L580.654 333.485C576.825 333.162 572.402 330.963 568.85 329.496C540.893 317.563 513.289 311.992 482.815 314.816C488.775 311.205 493.401 310.24 500.289 309.716Z"/>
</svg>
